<?xml version="1.0" encoding="utf-8"?>
<!-- Generator: Adobe Illustrator 25.2.0, SVG Export Plug-In . SVG Version: 6.00 Build 0)  -->
<svg version="1.1" id="Layer_1" xmlns="http://www.w3.org/2000/svg" xmlns:xlink="http://www.w3.org/1999/xlink" x="0px" y="0px"
	 viewBox="0 0 452.24 220.88" style="enable-background:new 0 0 452.24 220.88;" xml:space="preserve">
<style type="text/css">
	.st0{fill:#0101FF;}
</style>
<g>
	<path class="st0" d="M25.23,135.36l-0.4-0.1c0.25-0.99,0.53-2.12,0.39-3.19c-0.07-0.47-0.22-0.94-0.36-1.4
		c-0.06-0.18-0.11-0.35-0.16-0.53c-0.57-1.93-0.63-3.95-0.66-6.02c-0.03-2.88,0.01-5.8,0.13-8.68l0.02-0.57
		c0.08-2.01,0.17-4.09-0.13-6.11c-0.14-0.96-0.37-1.93-0.6-2.86c-0.25-1.06-0.52-2.16-0.65-3.27c-0.19-1.57-0.13-3.17-0.07-4.72
		l0.01-0.27c0.16-4.04,0.21-8.13,0.17-12.16v-0.06c-0.01-1.01-0.02-2.06,0.22-3.07c0.13-0.52,0.35-1.04,0.56-1.54
		c0.47-1.11,0.91-2.15,0.29-3.05c-0.88-1.29-1.11-3.03-0.7-5.32c0.09-0.52,0.21-1.05,0.32-1.56c0.27-1.2,0.54-2.44,0.52-3.67
		c-0.02-0.72-0.14-1.46-0.26-2.17c-0.08-0.48-0.16-0.99-0.22-1.49c-0.19-1.86,0.07-3.75,0.32-5.57c0.07-0.51,0.14-1.01,0.2-1.52
		c0.3-2.49,0.38-5.04,0.45-7.51c0.05-1.78,0.11-3.62,0.25-5.43c0.28-3.61,0.89-7.23,1.49-10.73c0.15-0.9,0.31-1.8,0.46-2.7
		c0.32-1.96,0.62-3.95,0.89-5.91c0.27-1.95,0.52-3.93,0.75-5.8c0.08-0.64,0.1-1.28,0.13-1.89c0.03-0.76,0.06-1.55,0.2-2.36
		c0.04-0.25,0.11-0.53,0.34-0.7c0.26-0.19,0.59-0.13,0.82-0.09c1.78,0.32,3.6,0.38,5.4,0.19c0.2-0.02,0.4-0.05,0.6-0.07
		c0.8-0.1,1.62-0.2,2.44-0.1c0.33,0.04,0.66,0.11,0.98,0.18c0.37,0.08,0.73,0.16,1.09,0.19s1.26,0.04,1.76-0.55
		c0.47-0.56,0.99-0.57,1.64-0.59l5.16-0.15c1.61-0.05,3.27-0.1,4.9,0.13c0.6,0.08,1.2,0.2,1.78,0.31c0.51,0.1,1.03,0.2,1.55,0.28
		c1.27,0.19,2.56,0.23,3.76,0.25c5.96,0.08,11.95-0.47,17.79-1.63l0.22-0.04c1.06-0.21,2.16-0.43,3.27-0.37
		c0.8,0.05,1.59,0.24,2.36,0.43c0.21,0.05,0.43,0.11,0.64,0.15c3.03,0.7,6.2,0.77,9.26,0.83c2.33,0.05,5.24,0.11,7.47-1.28
		c1.16-0.72,2.57-0.64,3.94-0.57c0.52,0.03,1.05,0.06,1.56,0.04c1.47-0.05,2.95-0.05,4.39-0.04l9.56,0.02c1.34,0,2.68,0.01,4,0.03
		c6.76,0.12,13.56,0.81,20.21,2.02c0.4,0.07,0.78-0.17,1.18-0.43c0.12-0.07,0.23-0.15,0.35-0.21c0.86-0.5,1.88-0.6,2.78-0.69
		l10.86-1.11c0.7-0.07,1.42-0.3,2.11-0.51c1.17-0.37,2.39-0.75,3.6-0.41c1.47,0.4,3.04,0.08,4.55-0.23
		c0.68-0.14,1.39-0.29,2.08-0.37c0.64-0.07,1.3-0.15,1.94-0.27c0.29-0.05,0.59-0.12,0.82-0.28c0.11-0.07,0.21-0.17,0.31-0.27
		c0.04-0.04,0.09-0.08,0.13-0.13c0.65-0.61,1.53-0.94,2.42-0.92l-0.01,0.41c-0.78-0.03-1.56,0.27-2.13,0.81
		c-0.04,0.04-0.08,0.08-0.12,0.12c-0.11,0.11-0.23,0.22-0.37,0.32c-0.3,0.2-0.65,0.28-0.97,0.34c-0.65,0.12-1.32,0.2-1.96,0.27
		c-0.68,0.08-1.37,0.22-2.05,0.36c-1.56,0.32-3.18,0.65-4.73,0.23c-1.11-0.31-2.21,0.03-3.38,0.4c-0.71,0.22-1.44,0.45-2.19,0.53
		l-10.86,1.11c-0.86,0.09-1.83,0.19-2.62,0.64c-0.11,0.06-0.22,0.13-0.33,0.2c-0.43,0.28-0.92,0.6-1.48,0.49
		c-6.63-1.21-13.4-1.89-20.14-2.02c-1.32-0.02-2.66-0.03-3.96-0.03l-9.6-0.02c-1.43,0-2.91-0.01-4.37,0.04
		c-0.52,0.02-1.07-0.01-1.59-0.04c-1.3-0.07-2.65-0.14-3.7,0.51c-2.34,1.45-5.31,1.39-7.7,1.34c-3.08-0.07-6.27-0.13-9.34-0.84
		c-0.22-0.05-0.43-0.1-0.65-0.16c-0.74-0.18-1.51-0.37-2.28-0.42c-1.06-0.06-2.13,0.15-3.17,0.36l-0.22,0.04
		C73.02,13.35,67,13.9,61.01,13.82c-1.22-0.02-2.52-0.06-3.82-0.25c-0.53-0.08-1.06-0.18-1.57-0.28c-0.57-0.11-1.17-0.23-1.75-0.31
		c-1.6-0.22-3.24-0.17-4.84-0.12l-5.16,0.15c-0.62,0.02-0.99,0.03-1.34,0.45c-0.44,0.52-1.21,0.77-2.1,0.7
		c-0.39-0.03-0.77-0.12-1.14-0.2c-0.31-0.07-0.63-0.14-0.94-0.18c-0.77-0.09-1.57,0-2.34,0.1c-0.2,0.02-0.41,0.05-0.61,0.07
		c-1.84,0.19-3.69,0.13-5.51-0.19c-0.2-0.04-0.39-0.06-0.51,0.02c-0.11,0.08-0.15,0.26-0.18,0.44c-0.13,0.78-0.16,1.52-0.19,2.31
		c-0.02,0.62-0.05,1.27-0.13,1.93c-0.23,1.87-0.48,3.85-0.75,5.81c-0.27,1.97-0.57,3.96-0.9,5.92c-0.15,0.9-0.3,1.8-0.46,2.71
		c-0.6,3.49-1.21,7.11-1.49,10.69c-0.14,1.8-0.19,3.64-0.24,5.41c-0.07,2.48-0.15,5.04-0.45,7.55c-0.06,0.51-0.13,1.02-0.2,1.52
		c-0.25,1.8-0.51,3.66-0.32,5.47c0.05,0.49,0.13,0.98,0.21,1.46c0.12,0.72,0.25,1.47,0.26,2.23c0.03,1.28-0.25,2.55-0.53,3.77
		c-0.11,0.51-0.23,1.03-0.32,1.54c-0.39,2.18-0.18,3.82,0.64,5.02c0.74,1.08,0.23,2.28-0.26,3.44c-0.21,0.49-0.42,0.99-0.54,1.48
		c-0.23,0.96-0.22,1.98-0.21,2.97v0.06c0.04,4.04-0.01,8.14-0.17,12.18l-0.01,0.27c-0.06,1.53-0.12,3.12,0.07,4.65
		c0.13,1.08,0.39,2.17,0.64,3.22c0.23,0.94,0.46,1.92,0.6,2.9c0.3,2.05,0.21,4.15,0.13,6.18l-0.02,0.57
		c-0.11,2.87-0.16,5.78-0.13,8.66c0.02,2.04,0.09,4.03,0.64,5.91c0.05,0.17,0.11,0.35,0.16,0.52c0.15,0.47,0.31,0.96,0.38,1.47
		C25.79,133.16,25.49,134.33,25.23,135.36z"/>
</g>
<g>
	<path class="st0" d="M24.31,128.02c-0.11-0.9,0.4-1.65,0.9-2.37c0.33-0.48,0.67-0.97,0.82-1.5c0.19-0.68,0.07-1.49-0.34-2.29
		c-0.35-0.68-0.87-1.29-1.37-1.87l-0.1-0.11l0.31-0.27l0.1,0.11c0.52,0.6,1.05,1.23,1.42,1.95c0.46,0.89,0.59,1.81,0.38,2.59
		c-0.17,0.59-0.53,1.12-0.88,1.62c-0.48,0.69-0.93,1.34-0.83,2.09L24.31,128.02z"/>
</g>
<g>
	<path class="st0" d="M33.59,197.92c-0.61,0-1.17-0.18-1.58-0.7c-0.27-0.35-0.39-0.78-0.49-1.16l-1.64-6.24
		c-0.49-1.86-0.99-3.78-1.12-5.75c-0.07-1.09-0.02-2.2,0.02-3.27c0.05-1.18,0.1-2.41-0.01-3.6c-0.11-1.24-0.4-2.48-0.68-3.67
		l-0.07-0.3c-2.35-10.09-3.73-20.45-4.09-30.8c-0.1-2.71-0.07-5.56,1.35-7.85l0.35,0.21c-1.36,2.2-1.38,4.97-1.29,7.62
		c0.36,10.32,1.74,20.66,4.08,30.72l0.07,0.3c0.28,1.21,0.58,2.47,0.69,3.73c0.11,1.22,0.06,2.46,0.01,3.65
		c-0.04,1.06-0.09,2.16-0.02,3.23c0.12,1.93,0.62,3.83,1.11,5.67l1.64,6.24c0.09,0.36,0.19,0.73,0.41,1.02
		c0.75,0.96,2.33,0.43,3.59,0l0.16-0.05c1.62-0.55,3.35-0.66,5.03-0.77c0.45-0.03,0.89-0.06,1.33-0.09
		c6.16-0.51,12.12-2.63,17.23-6.12c0.26-0.18,0.53-0.37,0.79-0.55c1.25-0.88,2.54-1.78,4.01-2.27c0.89-0.29,1.82-0.43,2.73-0.55
		c1.09-0.16,2.22-0.32,3.22-0.76c1-0.44,1.93-1.16,2.82-1.86c1.49-1.16,3.04-2.37,4.94-2.23c0.14,0.01,0.29,0.03,0.44,0.04
		c0.62,0.07,1.2,0.14,1.56-0.23c1.3-1.33,3.26-1.54,5.14-1.75c0.6-0.06,1.22-0.13,1.79-0.23c1.48-0.27,2.95-0.88,4.37-1.47
		c2.31-0.96,4.7-1.95,7.18-1.45c0.51,0.1,1,0.27,1.49,0.43c0.85,0.28,1.66,0.55,2.5,0.5c0.59-0.03,1.15-0.22,1.74-0.41
		c0.17-0.05,0.33-0.11,0.5-0.16c1.96-0.6,4.05-0.73,6.06-0.35c0.18,0.03,0.36,0.07,0.54,0.11c0.83,0.17,1.69,0.35,2.48,0.13
		c0.54-0.15,1.03-0.59,1.23-1.11c0.1-0.25,0.17-0.62-0.06-0.97l0.35-0.22c0.24,0.39,0.28,0.86,0.09,1.34
		c-0.25,0.63-0.85,1.18-1.5,1.36c-0.89,0.24-1.79,0.06-2.67-0.13c-0.18-0.04-0.36-0.07-0.54-0.11c-1.95-0.36-3.98-0.25-5.87,0.34
		c-0.16,0.05-0.33,0.1-0.49,0.16c-0.59,0.2-1.2,0.4-1.84,0.43c-0.92,0.05-1.8-0.24-2.65-0.52c-0.47-0.16-0.96-0.32-1.44-0.41
		c-2.36-0.48-4.58,0.45-6.94,1.43c-1.44,0.6-2.93,1.22-4.46,1.49c-0.59,0.11-1.21,0.17-1.82,0.24c-1.81,0.2-3.69,0.4-4.89,1.63
		c-0.5,0.51-1.24,0.42-1.9,0.35c-0.14-0.02-0.29-0.03-0.42-0.04c-1.75-0.12-3.17,0.98-4.66,2.15c-0.91,0.71-1.86,1.45-2.91,1.91
		c-1.06,0.46-2.21,0.63-3.33,0.79c-0.89,0.13-1.81,0.26-2.66,0.54c-1.42,0.47-2.68,1.36-3.9,2.21c-0.27,0.19-0.53,0.37-0.8,0.55
		c-5.17,3.53-11.19,5.67-17.42,6.18c-0.45,0.04-0.89,0.07-1.34,0.1c-1.65,0.11-3.36,0.22-4.92,0.75l-0.16,0.05
		C35.27,197.62,34.38,197.92,33.59,197.92z"/>
</g>
<g>
	<path class="st0" d="M11.8,213.58l-0.28-0.3l2.1-1.93c0.33-0.31,0.68-0.62,1.1-0.85c0.41-0.22,0.85-0.33,1.28-0.45l0.19-0.05
		c2.37-0.63,4.63-1.78,6.53-3.34c1-0.82,1.93-1.77,2.82-2.69l2.12-2.18c0.37-0.38,0.76-0.78,1.24-1.07
		c0.37-0.22,0.77-0.37,1.16-0.51c0.43-0.16,0.83-0.3,1.19-0.54c0.45-0.3,0.88-1.12,0.94-1.76c0.02-0.21,0-0.49-0.17-0.66l0.28-0.3
		c0.23,0.22,0.33,0.56,0.3,0.99c-0.07,0.77-0.57,1.7-1.12,2.07c-0.4,0.27-0.84,0.43-1.28,0.59c-0.39,0.14-0.75,0.28-1.09,0.48
		c-0.43,0.26-0.8,0.64-1.16,1.01l-2.12,2.18c-0.9,0.93-1.83,1.89-2.85,2.72c-1.94,1.59-4.25,2.78-6.68,3.42l-0.2,0.05
		c-0.43,0.11-0.83,0.21-1.19,0.41c-0.37,0.2-0.7,0.5-1.02,0.79L11.8,213.58z"/>
</g>
<g>
	<path class="st0" d="M31.11,200.19l-0.16-0.38l2.84-1.19c0.17-0.07,0.34-0.14,0.48-0.24c0.13-0.09,0.25-0.21,0.37-0.34l0.11-0.12
		c0.41-0.4,0.88-0.73,1.4-0.97l0.17,0.37c-0.48,0.22-0.91,0.52-1.28,0.89l-0.11,0.11c-0.13,0.14-0.27,0.28-0.43,0.39
		c-0.18,0.12-0.38,0.21-0.56,0.28L31.11,200.19z"/>
</g>
<g>
	<path class="st0" d="M13.65,214.05c-0.7,0-1.39-0.04-2.09-0.14l0.06-0.4c3.22,0.46,6.53-0.3,9.65-1.13
		c6.2-1.65,12.4-3.66,18.39-5.6l17.74-5.75c2.17-0.7,4.41-1.43,6.61-2.18c2-0.68,4.11-1.44,6.06-2.47c0.55-0.29,1.11-0.62,1.64-0.93
		c0.56-0.33,1.15-0.67,1.74-0.98c2.41-1.27,5.03-2.08,7.57-2.86l5.72-1.77c2.23-0.69,4.54-1.4,6.91-1.69
		c2.65-0.32,5.35-0.11,7.96,0.09c1.72,0.14,3.5,0.28,5.25,0.26c1.4-0.01,3.39-0.18,4.49-1.47c0.53-0.62,0.81-1.46,1.05-2.2
		l2.78-8.48c0.11-0.34,0.09-0.78-0.05-0.95c-0.04-0.05-0.09-0.07-0.16-0.05l-0.07-0.4c0.21-0.04,0.41,0.03,0.54,0.19
		c0.27,0.31,0.27,0.92,0.13,1.34l-2.78,8.48c-0.26,0.78-0.54,1.66-1.13,2.34c-1.21,1.42-3.32,1.6-4.8,1.62
		c-1.76,0.01-3.56-0.12-5.29-0.26c-2.59-0.2-5.27-0.42-7.88-0.1c-2.33,0.28-4.62,0.99-6.84,1.68l-5.72,1.77
		c-2.52,0.78-5.13,1.59-7.5,2.84c-0.58,0.31-1.16,0.65-1.72,0.97c-0.54,0.32-1.1,0.64-1.66,0.94c-1.98,1.05-4.11,1.81-6.12,2.5
		c-2.2,0.75-4.45,1.48-6.61,2.18l-17.74,5.75c-6,1.94-12.2,3.95-18.41,5.6C18.88,213.43,16.27,214.05,13.65,214.05z"/>
</g>
<g>
	<path class="st0" d="M165.84,31l-0.37-0.17c0.18-0.4,0.31-0.83,0.43-1.25c0.1-0.35,0.21-0.72,0.35-1.07
		c0.39-0.97,1.03-1.83,1.66-2.67c0.88-1.18,1.72-2.3,1.86-3.67l0.01-0.06l0.04-0.05c0.99-1.27,1.83-2.43,2.15-3.75
		c0.05-0.21,0.08-0.41,0.12-0.62c0.04-0.23,0.08-0.48,0.14-0.72c0.17-0.66,0.47-1.27,0.76-1.86c0.29-0.58,0.58-1.18,0.74-1.8
		c0.02-0.07,0.03-0.13,0.05-0.2c0.05-0.23,0.1-0.47,0.21-0.69c0.07-0.14,0.16-0.27,0.24-0.39c0.06-0.09,0.12-0.18,0.17-0.27
		c0.13-0.23,0.2-0.5,0.28-0.78l0.06-0.22c0.3-1.02,0.76-1.69,1.37-2.4l0.31,0.27c-0.59,0.68-1.01,1.3-1.29,2.25l-0.06,0.22
		c-0.08,0.29-0.16,0.59-0.32,0.87c-0.06,0.1-0.13,0.2-0.19,0.3c-0.08,0.11-0.15,0.22-0.21,0.34c-0.09,0.18-0.13,0.38-0.18,0.6
		c-0.02,0.07-0.03,0.14-0.05,0.21c-0.16,0.67-0.47,1.29-0.77,1.88c-0.28,0.57-0.57,1.16-0.73,1.78c-0.06,0.22-0.1,0.46-0.14,0.69
		c-0.04,0.22-0.07,0.43-0.13,0.65c-0.33,1.39-1.18,2.57-2.19,3.86c-0.17,1.46-1.07,2.66-1.93,3.81c-0.61,0.81-1.24,1.65-1.61,2.57
		c-0.13,0.33-0.24,0.69-0.34,1.03C166.17,30.13,166.04,30.58,165.84,31z"/>
</g>
<g>
	<path class="st0" d="M115.08,174.84l-0.41-0.02l0.36-8.5c0.03-0.67,0.06-1.35,0.19-2.03c0.08-0.42,0.2-0.83,0.32-1.23
		c0.05-0.17,0.1-0.35,0.15-0.52c0.44-1.63,0.62-3.35,0.78-5.01l0.42-4.2c0.09-0.91,0.26-1.89,0.42-2.83
		c0.21-1.2,0.42-2.43,0.49-3.57l0.38-6.6c0.04-0.71,0.08-1.44,0.28-2.14c0.13-0.47,0.32-0.92,0.51-1.36
		c0.09-0.2,0.18-0.41,0.26-0.61c0.46-1.15,0.7-2.35,0.74-3.59l0.41,0.01c-0.04,1.28-0.3,2.54-0.77,3.73
		c-0.08,0.21-0.17,0.42-0.26,0.62c-0.18,0.42-0.37,0.86-0.49,1.3c-0.18,0.66-0.22,1.37-0.26,2.06l-0.38,6.6
		c-0.07,1.16-0.28,2.41-0.49,3.62c-0.16,0.94-0.33,1.91-0.42,2.81l-0.42,4.2c-0.17,1.68-0.34,3.41-0.8,5.08
		c-0.05,0.18-0.1,0.35-0.15,0.53c-0.11,0.39-0.23,0.79-0.31,1.19c-0.12,0.64-0.15,1.32-0.18,1.97L115.08,174.84z"/>
</g>
<g>
	<path class="st0" d="M30.8,17.42c-0.16,0-0.3-0.03-0.45-0.06c-0.19-0.04-0.36-0.08-0.51-0.03l-0.12-0.39
		c0.25-0.08,0.5-0.03,0.72,0.02c0.15,0.03,0.29,0.06,0.42,0.05c0.24-0.02,0.47-0.18,0.68-0.35c0.18-0.14,0.35-0.29,0.4-0.47
		c0.04-0.16-0.03-0.35-0.09-0.55c-0.09-0.26-0.19-0.55-0.07-0.85c0.08-0.22,0.26-0.36,0.4-0.48l0.77-0.64l0.26,0.31l-0.77,0.64
		c-0.11,0.09-0.23,0.19-0.28,0.31c-0.06,0.16,0,0.35,0.08,0.57c0.08,0.23,0.17,0.5,0.1,0.77c-0.07,0.31-0.32,0.53-0.54,0.7
		c-0.25,0.2-0.55,0.41-0.9,0.44C30.87,17.42,30.84,17.42,30.8,17.42z"/>
</g>
<g>
	<path class="st0" d="M28.68,17.74l-0.01-0.41c0.05,0,0.12-0.06,0.19-0.12c0.05-0.04,0.1-0.09,0.15-0.12
		c0.25-0.17,0.56-0.17,0.78-0.17v0.41c-0.23,0-0.42,0.01-0.56,0.1c-0.04,0.03-0.08,0.06-0.11,0.09
		C29.01,17.62,28.87,17.74,28.68,17.74z"/>
</g>
<g>
	<path class="st0" d="M31.49,19.86c-0.08,0-0.17-0.03-0.25-0.08c-0.09-0.06-0.15-0.14-0.2-0.21c-0.08-0.11-0.21-0.28-0.2-0.5
		c0-0.02,0-0.09,0.05-0.15c0.03-0.05,0.08-0.08,0.14-0.1c0.04-0.01,0.08-0.02,0.12-0.02c0.02,0,0.03,0,0.04-0.01l0.05,0.06
		l0.11,0.03l-0.17-0.12c0.06-0.13,0.17-0.22,0.3-0.25c0.24-0.07,0.53,0.04,0.7,0.15c0.21,0.13,0.24,0.28,0.23,0.38
		c-0.02,0.25-0.33,0.37-0.43,0.41c-0.03,0.01-0.05,0.03-0.07,0.05c-0.01,0.02-0.03,0.04-0.04,0.06c-0.04,0.08-0.1,0.19-0.22,0.25
		C31.6,19.85,31.55,19.86,31.49,19.86z M31.27,19.2c0.03,0.05,0.06,0.1,0.09,0.13c0.03,0.04,0.07,0.09,0.1,0.11
		c0.02,0.01,0.04-0.03,0.05-0.06c0.02-0.04,0.04-0.08,0.06-0.11c0.06-0.09,0.15-0.16,0.25-0.2c0.06-0.02,0.11-0.05,0.13-0.06l0,0
		c-0.11-0.07-0.28-0.12-0.37-0.1c-0.02,0.01-0.04,0.02-0.05,0.04l0,0l-0.18-0.09l0.18,0.11c-0.01,0.03-0.03,0.07-0.07,0.11
		C31.41,19.15,31.33,19.18,31.27,19.2z M31.15,19.22L31.15,19.22L31.15,19.22z"/>
</g>
<g>
	<path class="st0" d="M85.89,12.54c-0.17,0-0.35,0-0.52-0.01l0.01-0.41c3.13,0.09,6.26-0.68,9.29-1.43
		c2.99-0.74,6.08-1.51,9.21-1.45l0.27,0.01c0.61,0.02,1.24,0.03,1.8-0.16c0.4-0.14,0.75-0.37,1.12-0.62
		c0.32-0.21,0.65-0.43,1.01-0.59c0.97-0.41,2.02-0.33,3.04-0.25c0.54,0.04,1.11,0.09,1.64,0.05c0.65-0.04,1.3-0.2,1.93-0.35
		c0.16-0.04,0.31-0.08,0.47-0.11c3-0.7,6.12-0.81,9.14-0.92c2.66-0.09,5.4-0.19,8.04-0.69c0.33-0.06,0.66-0.13,0.98-0.2
		c1.03-0.21,2.1-0.44,3.18-0.46c1.12-0.02,2.23,0.18,3.31,0.37c0.76,0.14,1.55,0.28,2.33,0.33c1.01,0.08,2.04,0.02,3.04-0.03
		c0.74-0.04,1.5-0.08,2.26-0.07c1.15,0.02,2.31,0.16,3.43,0.29l10.04,1.22c0.67,0.08,1.39-0.04,2.08-0.16
		c0.32-0.05,0.65-0.11,0.97-0.14c0.5-0.06,1.03-0.11,1.55-0.06c0.38,0.04,0.75,0.13,1.1,0.22c0.19,0.05,0.38,0.1,0.57,0.14
		c1.3,0.27,2.67,0.14,3.99,0.01c0.31-0.03,0.62-0.06,0.93-0.09c2.12-0.17,4.25-0.11,6.35,0.18l-0.06,0.4
		c-2.07-0.29-4.18-0.34-6.27-0.17c-0.31,0.02-0.62,0.05-0.92,0.08c-1.35,0.13-2.75,0.27-4.11-0.02c-0.2-0.04-0.39-0.09-0.59-0.14
		c-0.36-0.09-0.69-0.18-1.04-0.21c-0.48-0.05-0.99,0.01-1.47,0.06c-0.31,0.03-0.64,0.09-0.95,0.14c-0.72,0.12-1.47,0.25-2.2,0.16
		L150.8,6.24c-1.11-0.13-2.25-0.27-3.38-0.29c-0.74-0.01-1.5,0.03-2.23,0.07c-1.01,0.05-2.06,0.11-3.1,0.03
		c-0.8-0.06-1.6-0.2-2.37-0.34c-1.06-0.19-2.15-0.39-3.23-0.36c-1.04,0.02-2.09,0.24-3.11,0.45c-0.33,0.07-0.66,0.14-0.99,0.2
		c-2.67,0.5-5.43,0.6-8.11,0.7c-3,0.11-6.11,0.22-9.07,0.91c-0.15,0.04-0.31,0.07-0.46,0.11c-0.65,0.16-1.32,0.32-2.01,0.36
		c-0.56,0.04-1.14-0.01-1.7-0.05c-1.02-0.08-1.97-0.16-2.85,0.22c-0.33,0.14-0.63,0.34-0.95,0.55c-0.38,0.25-0.77,0.51-1.21,0.66
		c-0.63,0.22-1.3,0.2-1.95,0.19l-0.27-0.01c-3.07-0.06-6.14,0.7-9.11,1.44C91.88,11.8,88.9,12.54,85.89,12.54z"/>
</g>
<g>
	<path class="st0" d="M11.74,213.33c-2.18-0.29-2.7-3.27-2.95-4.7c-0.28-1.61-0.73-3.22-1.16-4.78c-0.5-1.79-1.01-3.65-1.28-5.52
		c-0.32-2.25-0.29-4.55-0.26-6.78c0.01-0.78,0.02-1.55,0.02-2.33c-0.02-3.96-0.42-7.98-0.8-11.87c-0.57-5.73-1.15-11.65-0.54-17.47
		l0.01-0.05c0.05-0.45,0.1-0.92-0.01-1.35c-0.08-0.32-0.25-0.62-0.43-0.93c-0.07-0.13-0.15-0.26-0.22-0.39
		c-0.74-1.44-0.83-3.33-0.27-5.46c0.24-0.92,0.58-1.82,0.9-2.69c0.3-0.8,0.61-1.64,0.84-2.47c1.1-3.94,0.87-8.28-0.59-11.32
		c-0.08-0.16-0.16-0.32-0.24-0.49c-0.68-1.38-1.38-2.8-0.89-4.3c0.51-1.59,0.72-2.75,0.62-3.44l0.4-0.06
		c0.12,0.77-0.09,1.95-0.63,3.63c-0.43,1.35,0.23,2.69,0.87,4c0.08,0.16,0.16,0.33,0.24,0.49c1.5,3.13,1.74,7.57,0.61,11.61
		c-0.24,0.85-0.55,1.69-0.85,2.5c-0.32,0.86-0.65,1.75-0.89,2.65c-0.38,1.42-0.64,3.47,0.24,5.17c0.06,0.13,0.14,0.25,0.21,0.37
		c0.18,0.32,0.37,0.66,0.47,1.03c0.13,0.5,0.07,1,0.02,1.49l-0.01,0.05c-0.6,5.78-0.02,11.68,0.54,17.39
		c0.39,3.9,0.78,7.93,0.81,11.91c0,0.78-0.01,1.56-0.02,2.34c-0.03,2.21-0.06,4.5,0.26,6.72c0.26,1.85,0.77,3.69,1.27,5.47
		c0.43,1.57,0.88,3.19,1.17,4.82c0.37,2.14,0.94,4.15,2.6,4.37L11.74,213.33z"/>
</g>
<g>
	<path class="st0" d="M4.33,127.57c-0.2-2.17-0.44-4.87,0.71-7.09c0.32-0.63,0.75-1.2,1.16-1.75c0.25-0.34,0.51-0.69,0.75-1.04
		c1.19-1.82,1.71-3.97,2.04-5.63c0.51-2.59,0.74-5.27,0.97-7.86c0.56-6.3,1.13-12.81,0.87-19.23c-0.02-0.43-0.04-0.87-0.06-1.3
		c-0.09-1.83-0.18-3.71,0.02-5.57c0.01-0.13,0.03-0.27,0.05-0.4c0.09-0.75,0.18-1.52,0-2.23c-0.26-1.02-0.99-1.78-1.77-2.6
		c-0.6-0.62-1.21-1.27-1.61-2.04c-0.48-0.95-0.6-2.03-0.67-2.96C6.5,64.19,6.76,60.5,7.56,56.91c0.33-1.48,0.21-3.12,0.09-4.71
		c-0.16-2.22-0.33-4.52,0.72-6.43c0.09-0.17,0.19-0.33,0.29-0.49c0.18-0.29,0.35-0.57,0.47-0.87c0.11-0.29,0.16-0.6,0.22-0.93
		c0.05-0.28,0.1-0.58,0.19-0.86c0.11-0.35,0.28-0.68,0.45-0.99c0.2-0.39,0.39-0.75,0.48-1.15c0.11-0.51,0.04-1.07-0.02-1.53
		l-0.02-0.19c-0.18-1.42-0.37-2.89,0.04-4.28c0.05-0.17,0.11-0.35,0.17-0.52c0.17-0.49,0.33-0.95,0.28-1.42
		c-0.02-0.22-0.09-0.43-0.16-0.65c-0.07-0.24-0.15-0.48-0.17-0.74c-0.08-0.87,0.4-1.6,0.88-2.31c0.23-0.34,0.46-0.7,0.63-1.06
		c0.39-0.87,0.38-1.83,0.37-2.85c-0.01-0.74-0.01-1.5,0.15-2.24c0.12-0.55,0.31-0.96,0.6-1.26c0.34-0.36,0.8-0.56,1.24-0.72
		c1.16-0.41,2.36-0.65,3.59-0.71c0.11-0.01,0.23-0.01,0.34-0.01c0.47-0.01,0.92-0.03,1.35-0.15c0.57-0.16,1.09-0.51,1.58-0.85
		c0.31-0.21,2.14-1.51,3.9-2.76c1.78-1.26,3.61-2.57,3.93-2.78l0.23,0.34c-0.31,0.21-2.15,1.52-3.92,2.78s-3.6,2.56-3.91,2.77
		c-0.5,0.34-1.06,0.72-1.7,0.9c-0.48,0.13-0.97,0.15-1.45,0.17c-0.11,0-0.22,0.01-0.34,0.01c-1.19,0.05-2.35,0.28-3.47,0.69
		c-0.4,0.14-0.8,0.32-1.08,0.61c-0.23,0.25-0.39,0.6-0.5,1.07c-0.15,0.69-0.14,1.43-0.14,2.15c0.01,1.02,0.02,2.07-0.41,3.02
		c-0.18,0.39-0.42,0.76-0.66,1.12c-0.45,0.68-0.88,1.32-0.81,2.05c0.02,0.22,0.09,0.43,0.16,0.66s0.15,0.47,0.17,0.73
		c0.06,0.56-0.13,1.09-0.3,1.59c-0.06,0.17-0.12,0.34-0.17,0.5c-0.38,1.31-0.2,2.74-0.02,4.12l0.02,0.19
		c0.06,0.48,0.14,1.09,0.01,1.66c-0.1,0.45-0.31,0.86-0.52,1.26c-0.16,0.31-0.32,0.61-0.42,0.93c-0.08,0.26-0.13,0.52-0.18,0.81
		c-0.06,0.33-0.12,0.67-0.24,1c-0.13,0.34-0.32,0.65-0.5,0.94c-0.1,0.15-0.19,0.31-0.28,0.47c-0.99,1.81-0.83,3.94-0.67,6.21
		c0.12,1.62,0.24,3.3-0.1,4.83c-0.79,3.56-1.05,7.2-0.77,10.84c0.07,0.9,0.18,1.93,0.63,2.81c0.37,0.72,0.97,1.34,1.54,1.95
		c0.78,0.81,1.59,1.66,1.87,2.78c0.2,0.79,0.1,1.6,0.01,2.38c-0.02,0.13-0.03,0.26-0.05,0.39c-0.19,1.82-0.1,3.69-0.02,5.5
		c0.02,0.44,0.04,0.87,0.06,1.31c0.26,6.45-0.32,12.97-0.88,19.28c-0.23,2.6-0.47,5.29-0.98,7.9c-0.33,1.7-0.87,3.89-2.1,5.77
		c-0.24,0.37-0.5,0.72-0.76,1.07c-0.4,0.54-0.82,1.1-1.13,1.69c-1.09,2.12-0.86,4.75-0.66,6.87L4.33,127.57z"/>
</g>
<g>
	<path class="st0" d="M404.92,27.72l-4.67-4.59c-0.5-0.49-0.52-1.27-0.55-2.03c-0.03-0.74-0.05-1.44-0.49-1.78
		c-2.25-1.71-5.95-2.04-9.21-2.33c-1.2-0.11-2.33-0.21-3.34-0.37c-2.26-0.36-4.54-0.58-6.86-0.8c-0.78-0.07-1.57-0.14-2.35-0.22
		l-0.06-0.01c-0.59-0.05-1.2-0.15-1.79-0.23c-0.58-0.09-1.18-0.18-1.77-0.23l-0.06-0.01l-0.05-0.04c-0.87-0.73-2.11-0.84-3.21-0.94
		c-2.84-0.25-5.72-0.55-8.55-0.91c-1.64-0.21-3.39-0.45-5.08-0.89c-1.15-0.3-2.3-0.69-3.4-1.08c-0.41-0.14-0.82-0.28-1.23-0.42
		c-5.7-1.9-11.64-2.95-17.65-3.1c-1.59-0.04-3.42-0.01-4.91,0.81c-0.27,0.15-0.54,0.33-0.8,0.5c-0.45,0.3-0.91,0.61-1.44,0.8
		c-0.29,0.1-0.6,0.17-0.89,0.23c-0.33,0.07-0.63,0.13-0.92,0.24c-0.49,0.19-1.02,0.68-1.06,1.25c-0.02,0.24,0,0.48,0.02,0.74
		c0.03,0.32,0.05,0.65,0,0.98l-0.4-0.06c0.04-0.28,0.02-0.58,0-0.88c-0.02-0.26-0.04-0.53-0.02-0.81c0.06-0.76,0.73-1.36,1.32-1.59
		c0.32-0.13,0.66-0.2,0.99-0.26c0.29-0.06,0.57-0.12,0.84-0.21c0.48-0.17,0.9-0.45,1.35-0.75c0.27-0.18,0.54-0.36,0.83-0.52
		c1.59-0.87,3.47-0.9,5.12-0.86c6.05,0.15,12.03,1.2,17.77,3.12c0.41,0.14,0.82,0.28,1.24,0.42c1.1,0.38,2.23,0.77,3.37,1.07
		c1.66,0.43,3.4,0.67,5.03,0.88c2.82,0.36,5.7,0.67,8.53,0.91c1.08,0.09,2.42,0.21,3.39,0.99c0.57,0.05,1.16,0.14,1.73,0.23
		c0.58,0.09,1.18,0.18,1.77,0.23l0.06,0.01c0.78,0.07,1.57,0.14,2.35,0.22c2.33,0.22,4.62,0.44,6.89,0.8c1,0.16,2.13,0.26,3.32,0.37
		c3.32,0.3,7.08,0.63,9.42,2.41c0.6,0.45,0.63,1.28,0.65,2.09c0.02,0.71,0.05,1.38,0.43,1.75l4.67,4.59L404.92,27.72z"/>
</g>
<g>
	<path class="st0" d="M173.97,16.07l-0.38-0.14c0.63-1.68,1.3-3.17,2-4.75c0.21-0.46,0.42-0.94,0.63-1.42l0.03-0.07l0.07-0.03
		c2.07-1.02,4.38-1.59,6.69-1.64c2.22-0.04,4.46,0.37,6.62,0.78c2.78,0.53,5.66,1.07,8.46,0.58c1.06-0.19,2.12-0.53,3.14-0.86
		c1-0.32,2.04-0.66,3.09-0.85c1.92-0.36,3.92-0.26,5.85-0.16c2.46,0.12,5.01,0.25,7.32-0.6c0.38-0.14,0.76-0.31,1.13-0.47
		c0.61-0.27,1.24-0.55,1.91-0.71c2.25-0.55,4.48,0.2,6.97,1.16c0.46,0.18,0.92,0.37,1.37,0.56c1.64,0.69,3.2,1.35,4.96,1.35
		c0.01,0,0.02,0,0.03,0c0.3,0,0.61-0.02,0.92-0.03c1.1-0.06,2.24-0.12,3.19,0.48l-0.22,0.34c-0.84-0.53-1.91-0.48-2.95-0.42
		c-0.32,0.02-0.63,0.03-0.94,0.03c-0.01,0-0.02,0-0.03,0c-1.85,0-3.44-0.67-5.12-1.38c-0.45-0.19-0.9-0.38-1.36-0.56
		c-2.42-0.94-4.59-1.67-6.72-1.15c-0.63,0.16-1.25,0.43-1.85,0.69c-0.38,0.17-0.76,0.34-1.16,0.48c-2.39,0.87-4.98,0.74-7.48,0.62
		c-1.91-0.09-3.88-0.19-5.76,0.16c-1.03,0.19-2.05,0.52-3.04,0.84c-1.03,0.33-2.1,0.68-3.19,0.87c-2.87,0.51-5.79-0.04-8.61-0.58
		c-2.14-0.41-4.36-0.83-6.53-0.78c-2.22,0.05-4.45,0.59-6.45,1.57c-0.2,0.46-0.4,0.91-0.6,1.35
		C175.26,12.92,174.6,14.41,173.97,16.07z"/>
</g>
<g>
	<path class="st0" d="M176.14,10.08c-0.26-0.48-0.3-1.07-0.11-1.58l0.38,0.15c-0.15,0.4-0.12,0.86,0.09,1.23L176.14,10.08z"/>
</g>
<g>
	<path class="st0" d="M268.91,17.24c-1.33,0-2.71-0.12-3.96-0.71c-0.14-0.07-0.28-0.14-0.41-0.21c-0.31-0.16-0.6-0.31-0.91-0.4
		c-0.58-0.16-1.16-0.08-1.78,0c-0.59,0.08-1.2,0.16-1.81,0.03c-1.24-0.27-2.54-0.68-3.58-1.02c-0.83-0.26-1.54-0.49-1.82-0.51
		c-2.5-0.2-4.87-1.11-7.17-1.99c-1.11-0.43-2.26-0.87-3.41-1.22c-1.52-0.47-3.12-0.81-4.66-1.13c-2.69-0.57-5.47-1.16-7.95-2.46
		c-0.22-0.12-0.44-0.24-0.66-0.36c-0.55-0.31-1.13-0.62-1.73-0.83c-0.71-0.25-1.47-0.35-2.2-0.45l-6.67-0.92
		c-1.66-0.23-3.37-0.47-5.03-0.1c-0.73,0.16-1.44,0.44-2.13,0.72c-0.62,0.24-1.26,0.5-1.92,0.67c-1.1,0.29-2.24,0.35-3.35,0.41
		c-0.75,0.04-1.52,0.08-2.27,0.19c-2.86,0.43-5.74,0.58-8.79,0.49l-8.26-0.27c-0.79-0.03-1.61-0.05-2.4-0.01
		c-0.69,0.03-1.4,0.11-2.09,0.19c-1.66,0.19-3.38,0.38-5.03-0.08l0.11-0.39c1.57,0.44,3.25,0.25,4.87,0.06
		c0.69-0.08,1.41-0.16,2.12-0.19c0.81-0.04,1.64-0.01,2.44,0.01l8.26,0.27c3.03,0.1,5.88-0.06,8.72-0.48
		c0.76-0.11,1.55-0.15,2.3-0.19c1.09-0.06,2.21-0.12,3.27-0.39c0.63-0.17,1.26-0.41,1.87-0.65c0.71-0.28,1.44-0.57,2.2-0.74
		c1.73-0.38,3.56-0.13,5.17,0.09l6.67,0.92c0.76,0.1,1.54,0.21,2.28,0.47c0.63,0.22,1.22,0.55,1.79,0.86
		c0.21,0.12,0.43,0.24,0.65,0.35c2.43,1.27,5.18,1.85,7.84,2.42c1.55,0.33,3.16,0.67,4.7,1.14c1.16,0.36,2.32,0.8,3.44,1.23
		c2.27,0.87,4.62,1.77,7.05,1.97c0.33,0.03,1,0.24,1.91,0.53c1.04,0.33,2.32,0.74,3.55,1.01c0.55,0.12,1.09,0.05,1.67-0.03
		c0.63-0.08,1.29-0.17,1.94,0.01c0.36,0.1,0.68,0.27,0.99,0.43c0.13,0.07,0.26,0.14,0.4,0.2c1.63,0.77,3.55,0.7,5.24,0.64
		c0.68-0.02,1.38-0.05,2.02-0.27c0.51-0.18,0.96-0.47,1.43-0.78c0.25-0.16,0.5-0.33,0.77-0.48c1.49-0.84,3.21-1.08,4.85-1.25
		c2.18-0.23,4.41-0.38,6.56-0.52c3.68-0.24,7.48-0.49,11.15-1.18l0.23-0.04c1.39-0.26,2.82-0.54,4.16-0.04
		c1,0.37,2.29,0.23,3.54,0.09c0.61-0.07,1.19-0.13,1.73-0.14c0.52,0,1.06-0.01,1.56-0.13c0.35-0.08,0.69-0.22,1.04-0.37
		c0.29-0.12,0.59-0.25,0.91-0.34c0.88-0.26,1.8-0.24,2.68-0.22l8.88,0.17c0.01,0,0.01,0,0.02,0c0.78,0,3.16-0.75,3.49-1.25
		l0.34,0.22c-0.46,0.71-3.09,1.43-3.84,1.43c-0.01,0-0.01,0-0.02,0l-8.88-0.17c-0.86-0.02-1.74-0.03-2.56,0.21
		c-0.29,0.09-0.58,0.21-0.86,0.32c-0.35,0.15-0.72,0.3-1.1,0.39c-0.55,0.13-1.11,0.14-1.65,0.14c-0.52,0-1.09,0.07-1.69,0.14
		c-1.29,0.15-2.63,0.3-3.73-0.11c-1.23-0.46-2.61-0.2-3.94,0.06l-0.23,0.04c-3.7,0.7-7.51,0.95-11.2,1.19
		c-2.15,0.14-4.37,0.29-6.54,0.52c-1.59,0.17-3.27,0.4-4.69,1.2c-0.25,0.14-0.5,0.31-0.75,0.46c-0.47,0.31-0.97,0.63-1.52,0.82
		c-0.7,0.25-1.43,0.27-2.14,0.3C269.9,17.23,269.41,17.24,268.91,17.24z"/>
</g>
<g>
	<path class="st0" d="M436.74,113.27l-0.4-0.05c0.13-0.99,0.49-1.99,0.83-2.96c0.42-1.19,0.86-2.42,0.86-3.61
		c0-0.47,0.25-0.85,0.5-1.23c0.21-0.32,0.41-0.63,0.43-0.96c0-0.07,0.01-0.15,0.01-0.23c0.01-0.39,0.03-0.87,0.37-1.15
		c0.59-0.47,1.31-0.89,2.01-1.29c0.4-0.23,0.78-0.45,1.12-0.67c0.07-0.37,0.14-0.82,0.2-1.26c0.07-0.46,0.14-0.92,0.21-1.31
		c-0.18-0.39-0.34-0.7-0.49-1.01c-0.16-0.33-0.32-0.66-0.52-1.08l-0.03-0.05l0.01-0.06c0.14-1.08,0.16-2.5,0.04-3.53l-0.01-0.06
		l0.03-0.05c0.61-1.24,1.52-2.47,2.4-3.66c1.4-1.89,2.84-3.85,3.22-5.94c0.43-2.34,0.66-4.15,0.7-5.51
		c-0.98-0.56-2.05-1.32-2.65-2.58c-1.2-2.55-2.45-5.18-4.46-7.22c-0.55-0.55-1.16-1.07-1.75-1.56c-0.66-0.55-1.33-1.12-1.94-1.75
		c-0.65-0.68-1.22-1.45-1.78-2.19l-0.38-0.5c-1.03-1.37-2.16-2.71-3.24-4.01l-3.34-3.99c-4.5-5.38-9.15-10.94-14.28-15.9
		c-0.54-0.52-1.1-1.05-1.66-1.58c-2.85-2.69-5.79-5.46-7.67-8.72l0.35-0.2c1.85,3.21,4.77,5.97,7.6,8.63
		c0.57,0.53,1.12,1.06,1.67,1.58c5.15,4.97,9.81,10.54,14.31,15.93l3.34,3.99c1.09,1.3,2.21,2.64,3.25,4.02l0.38,0.51
		c0.55,0.73,1.11,1.49,1.75,2.16c0.59,0.62,1.26,1.18,1.9,1.72c0.6,0.5,1.22,1.02,1.78,1.59c2.06,2.09,3.32,4.75,4.54,7.33
		c0.57,1.21,1.63,1.92,2.58,2.46l0.11,0.06v0.12c-0.04,1.39-0.27,3.26-0.71,5.69c-0.4,2.18-1.87,4.18-3.29,6.11
		c-0.9,1.21-1.74,2.36-2.34,3.55c0.11,1.03,0.1,2.42-0.04,3.51c0.18,0.39,0.34,0.71,0.49,1.02c0.16,0.33,0.32,0.66,0.52,1.08
		l0.03,0.06l-0.01,0.07c-0.08,0.39-0.15,0.88-0.22,1.36s-0.14,0.97-0.22,1.37l-0.02,0.08l-0.07,0.05c-0.38,0.25-0.78,0.48-1.22,0.73
		c-0.68,0.4-1.39,0.81-1.96,1.26c-0.2,0.16-0.21,0.5-0.22,0.84c0,0.08,0,0.16-0.01,0.24c-0.03,0.44-0.27,0.81-0.5,1.16
		c-0.22,0.34-0.43,0.65-0.43,1c0,1.26-0.45,2.52-0.89,3.75C437.21,111.35,436.87,112.33,436.74,113.27z"/>
</g>
<g>
	<path class="st0" d="M122.43,189.4c-0.31,0-0.61-0.03-0.91-0.12c-0.96-0.27-2-0.94-2.92-1.54c-0.33-0.21-0.64-0.42-0.94-0.59
		c-1.76-1.05-3.21-2.55-4.2-4.35l0.36-0.2c0.96,1.73,2.36,3.18,4.05,4.19c0.3,0.18,0.62,0.38,0.95,0.6
		c0.89,0.58,1.91,1.24,2.81,1.49c0.96,0.27,2.09-0.05,3.17-0.35c0.56-0.16,1.14-0.32,1.68-0.39c0.19-0.03,0.4-0.05,0.61-0.08
		c0.65-0.08,1.38-0.17,1.96-0.33c0.15-0.04,0.3-0.08,0.45-0.13c0.64-0.19,1.29-0.38,1.97-0.26c0.93,0.16,1.98,0.32,2.81,0.26
		c0.47-0.03,0.99-0.09,1.55-0.15c1.3-0.14,2.77-0.31,3.92-0.16c0.79,0.1,1.68-0.13,2.54-0.35c0.73-0.19,1.48-0.38,2.18-0.39
		c0.96,0,2.39-0.23,3.32-0.52c0.38-0.12,0.79-0.07,1.19-0.02c0.45,0.05,0.88,0.11,1.18-0.09c0.15-0.1,0.29-0.25,0.42-0.4
		c0.22-0.25,0.45-0.51,0.8-0.6c0.9-0.24,1.97-0.1,3.17,0.41c0.39-0.07,0.71,0.14,0.99,0.33c0.18,0.12,0.36,0.24,0.54,0.28
		c0.25,0.06,0.52,0.07,0.8,0.07c0.2,0,0.41,0.01,0.61,0.03c0.46,0.06,0.91,0.23,1.29,0.5c0.51-0.29,1.26-0.35,1.78-0.28
		c0.32,0.04,0.64,0.13,0.95,0.21c0.22,0.06,0.44,0.11,0.66,0.16c0.61,0.12,1.25,0.13,1.87,0.14h0.27l-0.05,0.18
		c0.14-0.02,0.31-0.04,0.46-0.06c0.33-0.05,0.64-0.1,0.81-0.08l2.82,0.2c0.31,0.02,0.64,0.05,0.95,0.09
		c0.47,0.07,0.93,0.19,1.37,0.36c1.8-0.51,4.22-0.91,5.83-1.08c0.08-0.01,0.37-0.03,0.55,0.13c0.01,0.01,0.02,0.02,0.03,0.03
		c0.29-0.08,0.62-0.06,0.93-0.05c0.08,0,0.16,0.01,0.23,0.01c0.29,0,0.57,0.06,0.84,0.11l0.13,0.02c1.38,0.25,2.78,0.31,4.17,0.17
		c0.71-0.07,1.43,0.02,2.12,0.11c0.54,0.07,1.1,0.14,1.64,0.13c0.63-0.01,1.23,0.09,1.76,0.19c0.19,0.04,0.39,0.08,0.58,0.06
		c0.22-0.02,0.45-0.11,0.67-0.2l1.66-0.69c1.51-0.63,3.25-0.66,4.93-0.68c1.36-0.02,2.76-0.04,4.01-0.39
		c0.56-0.15,1.13-0.17,1.69-0.18c0.39-0.01,0.79-0.02,1.17-0.07c0.39-0.06,0.77-0.18,1.16-0.3c0.16-0.05,0.33-0.1,0.49-0.15
		c2.05-0.58,4.19-0.51,6.39-0.37c0.54,0.03,1.1,0.07,1.6-0.1c0.1-0.03,0.2-0.08,0.3-0.12c0.13-0.06,0.27-0.12,0.41-0.16
		c0.24-0.07,0.48-0.09,0.72-0.11c1.7-0.13,3.43-0.09,5.12,0.13l-0.05,0.4c-1.67-0.22-3.36-0.26-5.04-0.13
		c-0.22,0.02-0.44,0.04-0.64,0.1c-0.12,0.04-0.24,0.09-0.36,0.14c-0.11,0.05-0.22,0.09-0.33,0.13c-0.57,0.2-1.18,0.16-1.76,0.12
		c-2.16-0.14-4.27-0.21-6.25,0.35c-0.16,0.05-0.32,0.1-0.48,0.15c-0.39,0.12-0.8,0.25-1.22,0.31c-0.41,0.06-0.82,0.07-1.22,0.08
		c-0.55,0.01-1.08,0.02-1.58,0.16c-1.3,0.36-2.73,0.38-4.11,0.4c-1.64,0.03-3.33,0.05-4.78,0.65l-1.66,0.69
		c-0.24,0.1-0.5,0.21-0.79,0.23c-0.24,0.02-0.48-0.03-0.69-0.07c-0.5-0.1-1.09-0.2-1.67-0.19c-0.57,0.01-1.14-0.06-1.7-0.13
		c-0.7-0.09-1.36-0.17-2.03-0.1c-1.43,0.14-2.87,0.08-4.28-0.17l-0.13-0.02c-0.27-0.05-0.52-0.1-0.77-0.1c-0.08,0-0.16,0-0.24-0.01
		c-0.32-0.01-0.69-0.03-0.92,0.08l-0.28,0.14l-0.01-0.32c-0.01,0-0.11-0.03-0.23-0.02c-1.62,0.17-4.05,0.58-5.83,1.09l-0.07,0.02
		l-0.06-0.03c-0.43-0.17-0.88-0.29-1.34-0.36c-0.3-0.04-0.62-0.07-0.92-0.09l-2.82-0.2c-0.13-0.01-0.44,0.04-0.72,0.08
		c-0.33,0.05-0.64,0.1-0.81,0.08l-0.25-0.02l0.05-0.19c-0.55-0.01-1.12-0.04-1.68-0.14c-0.23-0.04-0.46-0.1-0.68-0.16
		c-0.31-0.08-0.6-0.16-0.9-0.2c-0.51-0.07-1.22,0.01-1.61,0.28l-0.12,0.09l-0.12-0.09c-0.35-0.27-0.76-0.45-1.2-0.51
		c-0.18-0.02-0.37-0.03-0.57-0.03c-0.29,0-0.59-0.01-0.89-0.09c-0.25-0.06-0.46-0.2-0.67-0.34c-0.26-0.17-0.49-0.32-0.73-0.26
		l-0.07,0.02l-0.07-0.03c-1.14-0.49-2.14-0.63-2.96-0.41c-0.23,0.06-0.41,0.26-0.6,0.47c-0.15,0.17-0.31,0.35-0.51,0.48
		c-0.43,0.27-0.95,0.21-1.45,0.15c-0.37-0.04-0.73-0.09-1.02,0.01c-0.98,0.31-2.43,0.54-3.44,0.54c-0.65,0-1.35,0.18-2.08,0.37
		c-0.9,0.23-1.83,0.48-2.7,0.36c-1.1-0.14-2.55,0.02-3.82,0.16c-0.56,0.06-1.08,0.12-1.56,0.15c-0.87,0.06-1.96-0.1-2.91-0.27
		c-0.58-0.1-1.17,0.07-1.78,0.25c-0.15,0.05-0.31,0.09-0.46,0.13c-0.6,0.16-1.35,0.25-2.01,0.34c-0.21,0.03-0.41,0.05-0.6,0.08
		c-0.52,0.07-1.06,0.22-1.63,0.38C124.09,189.16,123.24,189.4,122.43,189.4z"/>
</g>
<g>
	<path class="st0" d="M225.73,184.09c-0.6-0.76-1.29-1.63-2.18-2.13c-0.85-0.48-1.84-0.62-2.8-0.76c-0.5-0.07-0.99-0.06-1.45-0.05
		c-0.67,0.02-1.37,0.04-2.11-0.21c-0.63-0.21-2.2,0-3.72,0.21c-1.79,0.24-3.48,0.47-4.23,0.15c-0.61-0.26-1.15-0.32-1.72-0.38
		c-0.58-0.06-1.17-0.13-1.84-0.42l-0.16-0.06c-0.24-0.1-0.49-0.2-0.69-0.39c-0.15-0.14-0.43-0.44-0.72-0.75
		c-0.29-0.31-0.63-0.67-0.73-0.76c-1.36-1.14-3-1.89-4.75-2.17c-0.45-0.07-1.07-0.17-1.32-0.68c-0.08-0.16-0.1-0.34-0.12-0.49
		c-0.01-0.05-0.01-0.11-0.02-0.16c-0.12-0.67-0.67-1.19-1.28-1.71c-0.2-0.11-1.54-0.19-1.79-0.02c-0.08,0.05-0.15,0.12-0.22,0.18
		c-0.11,0.1-0.23,0.21-0.38,0.28c-0.3,0.16-0.65,0.16-0.94,0.16c-1.47,0-3.7-0.2-4.9-0.3c-0.71-0.06-1.4,0.05-2.14,0.18
		c-0.28,0.05-0.57,0.1-0.85,0.13c-1.98,0.26-4.44,0.23-6.47-0.07c-0.58,0.7-1.55,1.08-2.9,1.13c-0.27,0.01-0.54,0.01-0.81,0.01
		c-0.8,0-1.55,0.01-2.26,0.25c-0.3,0.1-0.72,0.31-1.17,0.53c-0.74,0.36-1.5,0.73-2.04,0.82c-2.59,0.41-5.25,0.64-7.82,0.87
		c-0.34,0.03-0.82,0.06-1.31,0.1c-0.44,0.03-0.89,0.06-1.22,0.09c-0.36,0.38-0.93,0.43-1.37,0.35c-0.31-0.06-0.59-0.18-0.87-0.3
		c-0.14-0.06-0.28-0.12-0.42-0.17c-0.51-0.18-1.06-0.26-1.53-0.31c-1.55-0.16-3.12-0.12-4.67,0.12c-1.56,0.24-2.89,0.21-3.94-0.09
		c-1.21,0.59-2.58,0.53-3.9,0.47c-0.29-0.01-0.58-0.02-0.86-0.03c-1.16-0.02-3.24,0.16-4.08,1.61l-0.1,0.17l-0.17-0.09
		c-0.24-0.13-0.52-0.24-0.8-0.36c-0.82-0.34-1.66-0.69-1.99-1.5l-0.73-1.77l-0.53,0.66c-0.09,0.11-0.2,0.25-0.37,0.33
		c-0.16,0.07-0.32,0.08-0.46,0.08c-2.08,0.05-4.18,0.08-6.28,0.12s-4.2,0.07-6.28,0.12h-0.12l-1.68-2.94
		c-0.62-1.09-1.25-2.36-0.77-3.55l0.03-0.06l0.06-0.04c0.33-0.2,0.65-0.43,0.93-0.69c-0.34-0.1-0.7-0.17-1.06-0.19l-0.21-0.01
		l0.02-0.21c0.19-2.04-0.09-4.13-0.81-6.05l0.38-0.14c0.71,1.91,1,3.99,0.85,6.02c0.44,0.04,0.87,0.15,1.28,0.3l0.29,0.11
		l-0.22,0.22c-0.36,0.36-0.76,0.68-1.19,0.94c-0.37,1.01,0.2,2.15,0.77,3.14l1.56,2.73c2.04-0.05,4.1-0.08,6.16-0.12
		c2.1-0.04,4.2-0.07,6.28-0.12c0.1,0,0.21,0,0.29-0.04c0.08-0.04,0.15-0.13,0.22-0.22l0.96-1.2l0.99,2.41
		c0.27,0.65,1.03,0.97,1.77,1.27c0.22,0.09,0.45,0.19,0.67,0.29c0.99-1.48,3.13-1.67,4.34-1.65c0.29,0.01,0.58,0.02,0.87,0.03
		c1.3,0.05,2.65,0.11,3.78-0.47l0.07-0.04l0.08,0.02c1.01,0.3,2.3,0.34,3.84,0.1c1.58-0.24,3.18-0.28,4.77-0.12
		c0.5,0.05,1.08,0.13,1.63,0.33c0.15,0.05,0.3,0.12,0.44,0.18c0.27,0.11,0.52,0.22,0.79,0.28c0.32,0.07,0.79,0.03,1.03-0.27
		l0.05-0.07l0.09-0.01c0.34-0.03,0.82-0.06,1.31-0.1c0.48-0.03,0.96-0.07,1.29-0.1c2.57-0.23,5.22-0.47,7.8-0.87
		c0.48-0.08,1.25-0.45,1.93-0.78c0.46-0.22,0.89-0.43,1.22-0.55c0.78-0.27,1.6-0.27,2.4-0.28c0.26,0,0.53,0,0.79-0.01
		c1.28-0.05,2.18-0.41,2.67-1.07l0.07-0.1l0.12,0.02c2.01,0.31,4.5,0.35,6.47,0.09c0.28-0.04,0.56-0.08,0.84-0.13
		c0.73-0.12,1.49-0.25,2.24-0.18c1.2,0.11,3.45,0.3,4.87,0.3c0.25,0,0.53,0,0.75-0.12c0.1-0.05,0.2-0.14,0.3-0.23
		c0.09-0.08,0.17-0.15,0.27-0.21c0.42-0.29,2.04-0.16,2.29,0.05c0.66,0.57,1.27,1.15,1.41,1.95c0.01,0.06,0.02,0.12,0.03,0.18
		c0.02,0.13,0.03,0.26,0.08,0.36c0.16,0.32,0.63,0.39,1.02,0.46c1.82,0.29,3.54,1.07,4.95,2.26c0.12,0.1,0.44,0.44,0.77,0.79
		c0.28,0.3,0.56,0.6,0.71,0.74c0.15,0.14,0.35,0.22,0.56,0.31l0.16,0.07c0.61,0.26,1.16,0.32,1.73,0.39
		c0.57,0.06,1.17,0.13,1.83,0.41c0.65,0.27,2.44,0.03,4.01-0.18c1.64-0.22,3.18-0.43,3.9-0.19c0.67,0.23,1.3,0.21,1.97,0.19
		c0.48-0.01,0.98-0.03,1.52,0.05c0.95,0.14,2.03,0.29,2.94,0.81c0.96,0.54,1.68,1.44,2.3,2.24L225.73,184.09z"/>
</g>
<g>
	<path class="st0" d="M333.54,208.85c-0.74,0-1.51-0.08-2.2-0.41c-0.49-0.23-0.9-0.56-1.31-0.89c-0.26-0.21-0.54-0.43-0.82-0.61
		c-1.47-0.94-3.4-1-4.95-1.05l-12.74-0.42c-2.23-0.07-4.53-0.15-6.8-0.18c-3.13-0.04-6.31,0.01-9.39,0.07
		c-2.89,0.05-6.47-0.85-9.93-1.72c-3.43-0.86-6.98-1.76-9.82-1.71c-1.01,0.02-2.08,0.02-3.18,0.03c-4.1,0.02-8.75,0.04-12.5,0.7
		c-3.97,0.69-5.78,1.01-9.98,0.46c-8.19-1.07-12.03-3.56-15.8-10.23c-0.31-0.54-0.63-1.1-1.12-1.45c-0.41-0.29-0.91-0.41-1.44-0.54
		c-0.34-0.08-0.7-0.17-1.04-0.31c-0.83-0.34-1.48-0.97-2.11-1.57c-0.13-0.12-0.25-0.24-0.38-0.36c-2.46-2.29-5.65-3.77-8.98-4.18
		l0.05-0.41c3.42,0.41,6.69,1.93,9.21,4.28c0.13,0.12,0.26,0.24,0.38,0.37c0.6,0.58,1.23,1.18,1.98,1.49
		c0.31,0.13,0.65,0.21,0.98,0.29c0.54,0.13,1.1,0.27,1.58,0.6c0.56,0.4,0.91,1,1.24,1.58c3.75,6.62,7.37,8.96,15.5,10.02
		c4.14,0.54,5.93,0.23,9.86-0.46c3.78-0.66,8.45-0.68,12.57-0.7c1.1-0.01,2.16-0.01,3.17-0.03c2.89-0.05,6.47,0.85,9.92,1.72
		c3.43,0.86,6.99,1.76,9.82,1.71c3.08-0.05,6.27-0.1,9.4-0.07c2.27,0.03,4.58,0.1,6.81,0.18l12.74,0.42c1.6,0.05,3.6,0.12,5.16,1.11
		c0.3,0.19,0.58,0.42,0.86,0.64c0.4,0.32,0.79,0.63,1.23,0.84c0.99,0.47,2.17,0.39,3.21,0.32c4.53-0.31,9.67-0.65,13.97-2.92
		l0.19,0.36c-4.38,2.31-9.56,2.66-14.13,2.97C334.37,208.82,333.96,208.85,333.54,208.85z"/>
</g>
<g>
	<path class="st0" d="M348.63,205.85l-0.02-0.41c7.03-0.33,14.14-0.83,21.14-1.5c0.98-0.09,2.09-0.2,3.12-0.47
		c0.24-0.06,0.49-0.14,0.73-0.21c0.42-0.13,0.86-0.26,1.31-0.35c0.66-0.12,1.34-0.13,2-0.13c0.18,0,0.37,0,0.55-0.01
		c6-0.14,11.68-2.96,16.7-5.45l0.28-0.14l0.02,0.31c0.01,0.2,0.09,0.32,0.23,0.41c0.45,0.25,1.45,0,2.15-0.39
		c1.15-0.63,2.44-0.97,3.69-1.3c0.64-0.17,1.29-0.34,1.92-0.55c1.29-0.43,3.56-1.46,4.19-3.52c0.2-0.64,0.22-1.32,0.24-2.03
		c0.01-0.26,0.02-0.52,0.03-0.77c0.19-2.97,1.68-5.87,3.98-7.76c0.53-1.68,1.29-3.41,2.04-5.1s1.52-3.44,2.04-5.11
		c2.24-7.2,4.55-14.62,6.67-21.96c1.16-4.03,2.28-8.13,3.35-12.19l0.06-0.25c0.79-3.02,1.61-6.14,3.19-8.88
		c0.24-0.42,0.52-0.78,0.79-1.14c0.21-0.28,0.44-0.57,0.64-0.89c0.36-0.57,0.58-1.22,0.8-1.86l1.51-4.47
		c0.31-0.93,0.63-1.88,1.19-2.72c0.28-0.42,0.62-0.81,0.95-1.18l2.36-2.69l0.31,0.27l-2.36,2.69c-0.32,0.36-0.64,0.74-0.91,1.14
		c-0.53,0.8-0.84,1.73-1.15,2.63l-1.51,4.47c-0.22,0.66-0.45,1.34-0.84,1.95c-0.21,0.33-0.44,0.63-0.66,0.92
		c-0.27,0.36-0.53,0.7-0.76,1.1c-1.56,2.69-2.37,5.79-3.15,8.78l-0.06,0.25c-1.06,4.06-2.19,8.17-3.35,12.2
		c-2.11,7.35-4.43,14.77-6.66,21.95c-0.53,1.71-1.31,3.47-2.06,5.17c-0.75,1.69-1.52,3.44-2.04,5.11l-0.02,0.06l-0.05,0.04
		c-2.24,1.82-3.69,4.63-3.88,7.51c-0.02,0.25-0.02,0.5-0.03,0.76c-0.02,0.71-0.04,1.44-0.26,2.14c-0.69,2.23-3.09,3.33-4.45,3.78
		c-0.64,0.21-1.3,0.39-1.95,0.56c-1.22,0.32-2.48,0.65-3.59,1.26c-0.65,0.36-1.87,0.76-2.54,0.39c-0.19-0.1-0.32-0.26-0.39-0.45
		c-4.99,2.48-10.64,5.24-16.63,5.38c-0.19,0-0.37,0.01-0.56,0.01c-0.64,0.01-1.3,0.01-1.93,0.13c-0.42,0.08-0.85,0.21-1.26,0.33
		c-0.25,0.08-0.49,0.15-0.74,0.22c-1.07,0.28-2.2,0.39-3.19,0.49C362.79,205.01,355.67,205.52,348.63,205.85z"/>
</g>
<g>
	<path class="st0" d="M348.88,206.08c-0.4,0-0.82-0.07-1.2-0.15l-2.81-0.6c-0.72-0.15-1.12-0.5-1.09-0.96l0.41,0.03
		c-0.02,0.35,0.64,0.5,0.77,0.53l2.81,0.6c0.85,0.18,1.79,0.29,2.29-0.29l0.31,0.27C349.99,205.94,349.45,206.08,348.88,206.08z"/>
</g>
<g>
	<path class="st0" d="M371.87,203.71c-0.02,0-0.03,0-0.04,0c-0.1-0.01-0.18-0.08-0.22-0.17c-0.04-0.1-0.03-0.21,0.03-0.29
		c0.05-0.07,0.14-0.1,0.23-0.09l-0.02,0.13c0,0,0.01-0.01,0.01-0.02c0.16-0.23,0.28-0.52,0.4-0.79c0.26-0.6,0.53-1.21,1.17-1.46
		c0.33-0.13,0.67-0.11,1.01-0.1l0.12,0.01c0.96,0.04,1.91-0.1,2.82-0.41c0.41-0.14,0.83-0.32,1.24-0.5
		c1.17-0.51,2.39-1.03,3.65-0.74c0.44,0.1,0.85,0.3,1.24,0.48c0.19,0.09,0.37,0.18,0.56,0.26c1.73,0.72,3.78,0.53,5.35-0.49
		l0.22,0.34c-1.68,1.1-3.88,1.3-5.73,0.53c-0.2-0.08-0.39-0.17-0.58-0.27c-0.39-0.19-0.76-0.36-1.15-0.45
		c-1.14-0.26-2.23,0.22-3.4,0.72c-0.41,0.18-0.84,0.36-1.27,0.51c-0.96,0.33-1.96,0.48-2.97,0.44l-0.12-0.01
		c-0.3-0.01-0.59-0.03-0.84,0.07c-0.48,0.18-0.7,0.7-0.94,1.24c-0.13,0.29-0.26,0.59-0.44,0.85
		C372.09,203.66,371.96,203.71,371.87,203.71z M371.85,203.3l-0.04,0.26c0.06,0.01,0.11-0.02,0.15-0.06
		c0.02-0.03,0.04-0.08,0.02-0.12c-0.02-0.04-0.06-0.07-0.11-0.08C371.87,203.3,371.86,203.3,371.85,203.3z"/>
</g>
<g>
	<path class="st0" d="M394.5,197.61l-0.32-0.25l2.03-2.61c0.22-0.28,0.44-0.57,0.74-0.8c0.25-0.2,0.54-0.33,0.77-0.43
		c1.49-0.64,3.19-0.8,4.77-0.45c0.16,0.04,0.32,0.07,0.49,0.11c0.89,0.22,1.8,0.44,2.49-0.02l0.23,0.34
		c-0.84,0.56-1.89,0.3-2.82,0.08c-0.16-0.04-0.32-0.08-0.48-0.11c-1.5-0.33-3.11-0.18-4.52,0.43c-0.2,0.09-0.46,0.21-0.68,0.38
		c-0.26,0.2-0.47,0.47-0.67,0.73L394.5,197.61z"/>
</g>
<g>
	<path class="st0" d="M299.33,205c-3.57-0.78-6.65-2.96-9.63-5.06c-3.17-2.24-6.45-4.56-10.27-5.11c-1.93-0.28-3.93-0.08-5.86,0.11
		c-0.34,0.03-0.68,0.07-1.01,0.1c-9.91,0.9-19.92-0.36-28.95-3.64c-4.18-1.52-8.25-3.5-12.18-5.41l-6-2.92l0.18-0.37l6,2.92
		c3.92,1.91,7.98,3.88,12.14,5.39c8.97,3.25,18.92,4.5,28.77,3.61c0.34-0.03,0.67-0.06,1.01-0.1c1.95-0.19,3.98-0.39,5.96-0.1
		c3.92,0.56,7.24,2.91,10.45,5.18c2.95,2.08,5.99,4.23,9.48,5L299.33,205z"/>
</g>
</svg>
