<?xml version="1.0" encoding="utf-8"?>
<!-- Generator: Adobe Illustrator 25.2.0, SVG Export Plug-In . SVG Version: 6.00 Build 0)  -->
<svg version="1.1" id="Layer_1" xmlns="http://www.w3.org/2000/svg" xmlns:xlink="http://www.w3.org/1999/xlink" x="0px" y="0px"
	 viewBox="0 0 452.24 199.98" style="enable-background:new 0 0 452.24 199.98;" xml:space="preserve">
<style type="text/css">
	.st0{fill:none;stroke:#000000;stroke-miterlimit:10;}
	.st1{fill:none;stroke:#010101;stroke-miterlimit:10;}
	.st2{fill:#010101;}
</style>
<g>
	<path d="M74.11,115.49l-0.21-0.35l3.05-1.82c0.66-0.39,1.56-0.7,2.52-1.02c1.82-0.61,3.88-1.31,4.11-2.68
		c0.24-1.4,0.11-4.33,0.04-6.08l-0.02-0.47c-0.08-1.91-0.2-3.97-0.32-5.96c-0.12-2-0.24-4.06-0.32-5.97
		c-0.17-3.95-0.98-10.38-2.44-10.8c-1.09-0.31-3.3-0.4-5.43-0.49c-2.13-0.09-4.13-0.17-5.22-0.45c-2.68-0.7-5.1-0.47-7.65-0.22
		c-1.69,0.16-3.44,0.33-5.33,0.23l0.02-0.41c1.85,0.11,3.59-0.06,5.26-0.22c2.59-0.25,5.04-0.49,7.8,0.23
		c1.04,0.27,3.12,0.36,5.13,0.44c2.16,0.09,4.4,0.18,5.53,0.51c2.27,0.65,2.72,10.74,2.74,11.17c0.08,1.91,0.2,3.97,0.32,5.96
		c0.12,2,0.24,4.06,0.32,5.97l0.02,0.47c0.08,1.77,0.21,4.72-0.04,6.16c-0.28,1.61-2.37,2.32-4.39,3c-0.94,0.32-1.82,0.62-2.44,0.99
		L74.11,115.49z"/>
</g>
<g>
	<path d="M33.17,194.93c-4.05,0-8.88-2.06-13.04-5.58c-1.27-1.07-1.89-2.95-1.67-5.02c0.11-1,0.8-1.86,1.47-2.7
		c0.55-0.69,1.13-1.39,1.33-2.15c0.76-2.88,1.25-12.56,0.39-18.59l0.4-0.06c0.87,6.08,0.38,15.84-0.4,18.75
		c-0.22,0.84-0.82,1.58-1.4,2.3c-0.67,0.82-1.29,1.6-1.39,2.48c-0.2,1.94,0.37,3.69,1.53,4.67c4.27,3.62,9.25,5.66,13.3,5.47
		c1.66-0.08,3.33-0.41,4.95-0.74c1.38-0.28,2.8-0.56,4.22-0.69c0.93-0.08,1.89-0.1,2.82-0.12c2.01-0.04,4.09-0.09,5.97-0.8
		c0.34-0.13,0.66-0.24,0.97-0.35c1.65-0.58,2.74-0.97,3.51-2.65c0.07-0.2,0.07-1.7-0.47-2.35c-2.1-2.54-3.83-4.19-5.97-5.67
		l-0.05-0.03c-0.4-0.28-0.81-0.56-1.09-0.98c-0.41-0.62-0.43-1.39-0.46-2.02c-0.09-2.52-0.18-5.39-0.27-8.26
		c-0.09-2.87-0.18-5.74-0.27-8.26l0.41-0.01c0.09,2.52,0.18,5.39,0.27,8.26c0.09,2.87,0.18,5.74,0.27,8.26
		c0.02,0.6,0.05,1.29,0.39,1.81c0.24,0.36,0.61,0.62,0.98,0.87l0.05,0.03c2.17,1.51,3.93,3.17,6.06,5.75
		c0.65,0.79,0.66,2.5,0.53,2.78c-0.85,1.84-2.13,2.3-3.75,2.87c-0.3,0.11-0.62,0.22-0.96,0.35c-1.95,0.74-4.06,0.79-6.11,0.83
		c-0.92,0.02-1.87,0.04-2.79,0.12c-1.4,0.13-2.81,0.41-4.18,0.69c-1.63,0.33-3.32,0.67-5.01,0.75
		C33.53,194.93,33.35,194.93,33.17,194.93z"/>
</g>
<g>
	<path d="M394.56,182.32c-0.71,0-1.57-0.12-2.38-0.24l-0.17-0.03c-4.74-0.7-10.29-0.87-15.66-1.04c-6.38-0.2-12.98-0.4-18.29-1.49
		c-8.61-1.77-17.51-3.59-26.44-3.91c-7.92-0.28-15.94,0.63-23.7,1.51c-6.99,0.79-14.22,1.62-21.38,1.57
		c-6.77-0.05-13.6-0.87-20.21-1.67c-2.14-0.26-4.35-0.53-6.52-0.76c-7.2,0.16-14.98-0.08-22.45-0.69c-0.78-0.06-1.54-0.13-2.3-0.25
		c-0.27-0.04-0.53-0.09-0.8-0.13c-0.35-0.06-0.7-0.12-1.06-0.17c-0.98-0.13-2-0.15-2.98-0.17l-14.63-0.25
		c-3.48-0.53-7.31-0.69-11.02-0.83c-3.63-0.14-7.38-0.29-10.77-0.8c-6.54-0.97-13.21-1.31-19.81-1.01c-1,0.05-2.01,0.11-3.01,0.17
		c-3.2,0.19-6.51,0.39-9.76,0.09c-2.03-0.19-4.06-0.57-6.02-0.94c-0.63-0.12-1.26-0.24-1.89-0.35c-1.27-0.23-2.62-0.49-4.02-0.76
		c-5.58-1.08-11.9-2.29-17.07-2.19l-28.23,0.58c-2.68,0.05-5.44,0.11-8.15-0.24c-2.01-0.26-3.9-0.76-5.74-1.24
		c-3.18-0.84-6.19-1.63-9.57-1.2l-0.06,0.01l-0.05-0.03c-1.81-0.89-3.92-0.57-5.96-0.27c-0.65,0.1-1.33,0.2-1.99,0.26
		c-2.19,0.2-4.37-0.05-6.8-0.38c-3.57-0.48-7.29-1.33-10.89-2.16c-5.94-1.36-12.09-2.77-17.96-2.62l-19.2,0.5
		c-2.33,0.06-5.54-1.62-7.57-3.08l-0.06-0.04l-0.02-0.07c-0.61-1.93,0.06-3.9,0.71-5.8c0.24-0.71,0.49-1.45,0.67-2.17
		c0.53-2.15,0.44-4.41,0.35-6.59c-0.04-1.08-0.06-2.23-0.08-3.35c-0.03-1.87-0.06-3.81-0.21-5.57c-0.37-4.31-1.17-8.6-2.39-12.75
		c-0.25-0.87-0.54-1.85-0.24-2.76c0.21-0.65,1.27-1.54,2.19-1.83c0.42-0.14,0.77-0.13,1.03,0.01l3.38-0.63
		c5.34-1,10.87-2.02,16.41-2.11c3.57-0.05,8.54,0.23,11.66,0.51c4.44-0.2,9.06-0.41,13.56,0.31c3.84,0.62,7.1,0.87,10.25,0.78
		c4.76-0.13,9.69-1.33,14.46-2.5c1.8-0.44,3.67-0.89,5.47-1.28c-0.99-6.51-1.43-13.15-1.32-19.73l0.01-0.74
		c0.04-2.07,0.08-4.2-0.34-6.24c-0.41-2-1.68-5.66-3.81-6.69c-7.61-3.68-16.35-3.49-24.81-3.31c-3.43,0.07-6.98,0.15-10.41-0.03
		c-4.15-0.22-8.49-0.95-12.69-1.66c-6.94-1.17-14.11-2.38-20.84-1.38l-0.1,0.01l-0.07-0.07c-0.61-0.59-0.62-1.52-0.59-2.34
		c0.24-5.53,0.47-11.16,0.7-16.79c0.23-5.61,0.45-11.22,0.69-16.73c-0.27-0.54-0.28-1.18-0.04-1.8c0.33-0.85,1.11-1.6,1.98-1.91
		c1.32-0.46,2.73-0.24,4.1-0.02l0.4,0.06c1.22,0.19,2.59,0.3,3.7-0.21l0-0.01c0.03-0.01,0.07-0.02,0.1-0.03
		c0.13-0.06,0.25-0.13,0.37-0.21l0.06,0.09c4.93-1.42,10.11-1.62,15.12-1.82l22.34-0.88c8.45-0.33,17.18-0.68,25.76-1.18
		c12.9-0.75,25.96-1.87,38.8-3.34c6.32-0.72,13.18-0.79,19.81-0.86c3.78-0.04,7.68-0.08,11.35-0.25c4.91-0.22,9.82-1.25,14.57-2.24
		c3.92-0.82,7.97-1.67,12.01-2.06c2.61-0.25,5.21-0.07,7.73,0.12c2.12,0.15,4.32,0.31,6.48,0.2c1.92-0.1,3.89-0.41,5.79-0.7
		c1.99-0.31,4.05-0.63,6.1-0.73c10.7-0.51,21.58-0.07,32.11,0.35l0.2,0.01c2.96,0.12,5.86,0.65,8.67,1.16
		c4.14,0.75,8.06,1.47,12.14,0.98c6.7-0.79,13.71-0.62,20.48-0.46c2.73,0.06,5.55,0.13,8.29,0.13c3.56-0.01,7.22-0.14,10.76-0.28
		c4.35-0.17,8.85-0.34,13.21-0.25c3.84,0.08,7.96-0.26,12.31-0.62c5.62-0.46,11.44-0.94,16.55-0.43c6.06,0.6,12.23-0.19,18.2-0.95
		c3.84-0.49,7.81-1,11.73-1.14c4.86-0.17,9.79,0.22,14.55,0.6c5.47,0.44,11.13,0.89,16.68,0.48c0.59-0.04,1.17-0.09,1.76-0.15
		c2.01-0.18,4.09-0.36,6.13-0.15c6.37,0.66,12.44,5.17,16.64,12.38c2.45,4.2,4.11,8.86,5.72,13.37c0.75,2.11,1.53,4.28,2.38,6.38
		c0.11,0.28,0.23,0.56,0.34,0.84c0.88,2.15,1.79,4.37,1.99,6.72c0.22,2.62-0.45,5.25-1.1,7.8c-0.8,3.11-1.55,6.05-0.83,9.02
		c0.14,0.59,0.35,1.19,0.54,1.77c0.51,1.51,1.04,3.07,0.6,4.62c-0.79,2.76-4.21,3.8-7.05,3.58c-0.9-0.07-1.81-0.21-2.69-0.35
		c-1.82-0.29-3.7-0.59-5.49-0.19c-2.87,0.65-4.97,2.86-7.24,5.47c-0.99,1.14-2.11,2.44-2.4,4.01c-0.53,2.87,1.86,5.5,4.29,7
		c2.04,1.26,4.31,2.18,6.51,3.06c1.85,0.74,3.77,1.51,5.55,2.49c3.7,2.03,7.55,5.87,7.26,10.56c-0.07,1.09-0.36,2.16-0.65,3.19
		c-0.3,1.08-0.6,2.19-0.64,3.31c-0.08,2.55,1.2,4.9,2.43,7.17c0.37,0.68,0.76,1.39,1.1,2.09c4.22,8.66,2.47,20.03-4.16,27.02
		c-0.53,0.56-1.1,1.11-1.65,1.64c-1.19,1.14-2.41,2.31-3.31,3.69c-0.56,0.86-1,1.82-1.43,2.74c-0.48,1.03-0.98,2.1-1.64,3.06
		c-3.26,4.67-9.55,5.69-14.67,6.05c-0.39,0.03-0.79,0.05-1.19,0.08c-5.07,0.34-10.32,0.69-14.18,3.8c-0.59,0.47-2.34,1.3-3.29,1.72
		C395.39,182.27,395.01,182.32,394.56,182.32z M328.64,175.15c1,0,2.01,0.02,3.01,0.05c8.97,0.32,17.88,2.15,26.51,3.92
		c5.28,1.08,11.86,1.29,18.22,1.48c5.38,0.17,10.94,0.34,15.7,1.04l0.17,0.03c0.84,0.13,2.6,0.39,3.24,0.1
		c1.2-0.53,2.71-1.28,3.2-1.66c3.96-3.19,9.28-3.54,14.41-3.89c0.4-0.03,0.79-0.05,1.19-0.08c5.03-0.36,11.2-1.35,14.36-5.88
		c0.65-0.93,1.14-1.98,1.61-3c0.44-0.94,0.89-1.91,1.46-2.79c0.93-1.42,2.17-2.61,3.37-3.77c0.55-0.52,1.11-1.07,1.64-1.62
		c6.52-6.87,8.24-18.05,4.09-26.56c-0.34-0.69-0.72-1.4-1.09-2.08c-1.26-2.32-2.57-4.72-2.48-7.38c0.04-1.17,0.35-2.3,0.66-3.4
		c0.28-1.01,0.57-2.06,0.63-3.11c0.28-4.49-3.46-8.2-7.05-10.17c-1.76-0.97-3.66-1.73-5.51-2.47c-2.22-0.89-4.51-1.8-6.58-3.09
		c-2.54-1.58-5.04-4.35-4.47-7.42c0.31-1.69,1.52-3.08,2.5-4.2c2.31-2.67,4.46-4.93,7.45-5.6c1.87-0.42,3.78-0.11,5.64,0.19
		c0.87,0.14,1.77,0.28,2.66,0.35c2.68,0.2,5.9-0.74,6.63-3.29c0.41-1.43-0.08-2.86-0.59-4.37c-0.2-0.59-0.41-1.2-0.55-1.81
		c-0.74-3.06,0.06-6.19,0.83-9.21c0.64-2.51,1.31-5.11,1.09-7.66c-0.19-2.29-1.09-4.48-1.96-6.6c-0.12-0.28-0.23-0.56-0.34-0.85
		c-0.85-2.11-1.63-4.29-2.38-6.4c-1.6-4.49-3.26-9.13-5.69-13.3c-1.96-3.36-7.46-11.27-16.32-12.18c-2.01-0.21-4.06-0.02-6.05,0.15
		c-0.59,0.05-1.18,0.1-1.77,0.15c-5.58,0.41-11.25-0.05-16.74-0.48c-4.76-0.38-9.67-0.77-14.51-0.6c-3.9,0.14-7.86,0.64-11.69,1.13
		c-5.99,0.77-12.19,1.56-18.3,0.95c-5.08-0.51-10.87-0.03-16.48,0.44c-4.17,0.34-8.49,0.7-12.35,0.62
		c-4.35-0.09-8.84,0.09-13.19,0.25c-3.55,0.14-7.22,0.29-10.78,0.28c-2.74,0-5.57-0.07-8.3-0.13c-6.76-0.16-13.75-0.33-20.42,0.46
		c-4.15,0.49-8.27-0.26-12.26-0.99c-2.79-0.51-5.68-1.03-8.61-1.15l-0.2-0.01c-10.52-0.42-21.39-0.86-32.07-0.35
		c-2.03,0.1-4.08,0.41-6.06,0.72c-1.91,0.3-3.89,0.6-5.83,0.71c-2.18,0.12-4.39-0.04-6.53-0.2c-2.5-0.18-5.09-0.37-7.66-0.12
		c-4.02,0.39-8.06,1.24-11.97,2.06c-4.76,1-9.69,2.03-14.64,2.25c-3.67,0.17-7.58,0.21-11.36,0.25c-6.62,0.07-13.46,0.14-19.77,0.86
		c-12.85,1.47-25.91,2.59-38.82,3.34c-8.58,0.5-17.32,0.84-25.76,1.18L39.43,31.1c-5.12,0.2-10.42,0.41-15.41,1.92
		c-1.23,0.59-2.7,0.48-4.01,0.28l-0.4-0.06c-1.31-0.21-2.67-0.43-3.9,0c-0.77,0.27-1.45,0.92-1.74,1.67
		c-0.15,0.38-0.26,0.94,0.04,1.51l0.03,0.05l0,0.06c-0.24,5.53-0.47,11.16-0.7,16.79c-0.23,5.63-0.46,11.26-0.7,16.79
		c-0.03,0.73-0.03,1.48,0.4,1.96c6.76-0.99,13.93,0.22,20.86,1.39c4.18,0.71,8.51,1.44,12.64,1.66c3.42,0.18,6.96,0.11,10.38,0.03
		c8.51-0.18,17.3-0.37,25,3.35c2.27,1.1,3.61,4.9,4.03,6.98c0.43,2.08,0.39,4.24,0.35,6.33l-0.01,0.73
		c-0.11,6.62,0.34,13.3,1.35,19.85l0.03,0.19l-0.19,0.04c-1.85,0.39-3.78,0.86-5.64,1.31c-4.79,1.17-9.73,2.37-14.54,2.51
		c-3.18,0.09-6.46-0.16-10.33-0.78c-4.46-0.72-9.06-0.51-13.51-0.31c-3.14-0.28-8.1-0.56-11.64-0.51
		c-5.51,0.08-11.02,1.11-16.35,2.1l-3.55,0.66l-0.07-0.05c-0.15-0.11-0.41-0.11-0.74,0c-0.78,0.25-1.75,1.04-1.92,1.57
		c-0.26,0.79,0,1.67,0.25,2.52c1.23,4.18,2.04,8.49,2.4,12.83c0.15,1.78,0.18,3.72,0.21,5.6c0.02,1.17,0.04,2.27,0.08,3.34
		c0.09,2.21,0.18,4.5-0.36,6.71c-0.18,0.74-0.43,1.48-0.68,2.21c-0.65,1.9-1.26,3.7-0.73,5.48c1.99,1.41,5.06,3.02,7.27,2.97
		l19.2-0.5c5.93-0.16,12.09,1.26,18.06,2.63c3.59,0.82,7.3,1.68,10.85,2.15c2.4,0.32,4.56,0.57,6.71,0.37
		c0.65-0.06,1.32-0.16,1.97-0.25c2.09-0.31,4.24-0.63,6.15,0.28c3.43-0.42,6.46,0.38,9.66,1.22c1.82,0.48,3.71,0.98,5.69,1.23
		c2.68,0.35,5.43,0.29,8.09,0.24l28.23-0.58c5.22-0.11,11.56,1.12,17.16,2.2c1.39,0.27,2.74,0.53,4.01,0.76
		c0.63,0.11,1.27,0.23,1.9,0.35c1.95,0.37,3.97,0.75,5.98,0.94c3.22,0.3,6.51,0.1,9.7-0.1c1.01-0.06,2.01-0.12,3.02-0.17
		c6.63-0.3,13.32,0.04,19.89,1.01c3.37,0.5,7.11,0.65,10.73,0.79c3.72,0.15,7.56,0.3,11.04,0.84l0.58,0.01l14.02,0.25
		c0.99,0.02,2.02,0.04,3.03,0.17c0.36,0.05,0.72,0.11,1.08,0.17c0.26,0.05,0.52,0.09,0.79,0.13c0.75,0.11,1.5,0.18,2.27,0.24
		c7.46,0.61,15.22,0.85,22.44,0.69c2.2,0.24,4.41,0.51,6.55,0.76c6.6,0.8,13.42,1.62,20.16,1.67c7.12,0.05,14.35-0.77,21.33-1.56
		C314.68,175.95,321.68,175.15,328.64,175.15z"/>
</g>
<g>
	<path d="M32.57,31.02l-0.38-0.16c1.15-2.68-0.57-5.7-2.41-8.3l-3.52-4.97c-0.51-0.72-1.14-1.61-1.24-2.64
		c-0.19-1.88,1.24-3.5,4.36-4.94c3.9-1.81,7.93-3.68,12.2-4.67c4.8-1.11,9.28-0.9,12.95,0.63c1.25,0.52,2.45,1.2,3.61,1.87
		c1.63,0.93,3.31,1.89,5.13,2.38l0.45,0.12c1.6,0.41,3.42,0.88,3.79,2.49c0.37,1.63-1.15,2.89-2.37,3.91l-0.25,0.21
		c-3.54,2.98-5.17,8.17-3.96,12.63l-0.39,0.11c-1.27-4.68,0.38-9.93,4.09-13.05l0.25-0.21c1.2-1,2.55-2.12,2.24-3.51
		c-0.31-1.37-2-1.81-3.49-2.19l-0.45-0.12c-1.87-0.5-3.58-1.47-5.22-2.42c-1.15-0.66-2.33-1.33-3.56-1.84
		c-4.54-1.88-9.41-1.37-12.7-0.6c-4.24,0.98-8.25,2.84-12.12,4.64c-2.94,1.36-4.29,2.85-4.12,4.53c0.09,0.92,0.67,1.73,1.17,2.44
		l3.52,4.97C32.02,25.02,33.8,28.15,32.57,31.02z"/>
</g>
<g>
	<path d="M26.72,114.73l-0.4-0.1c0.71-2.82,1.21-5.72,1.49-8.62c0.34-3.55,0.35-7.19,0.36-10.7l0.05-15.27
		c0.01-2.65-0.27-6.3-2.8-7.48l0.17-0.37c2.74,1.27,3.04,5.09,3.03,7.85l-0.05,15.27c-0.01,3.52-0.02,7.16-0.37,10.74
		C27.94,108.96,27.43,111.88,26.72,114.73z"/>
</g>
<g>
	<path d="M52.68,114.95c-0.15,0-0.27-0.08-0.34-0.23c-0.08-0.18-0.08-0.44,0.08-0.57c0.08-0.07,0.23-0.11,0.38,0l-0.24,0.33
		c0.01,0,0.04,0.01,0.08,0c0.04-0.01,0.06-0.04,0.06-0.05c-0.01,0.03,0,0.1,0.01,0.12c0.15-0.05,0.2-0.41,0.21-0.57l1.27-15.79
		c0.17-2.11,0.34-4.29,0.78-6.41c0.26-1.26,0.29-2.5,0.33-3.71c0.04-1.7,0.09-3.45,0.8-5.19c0.4-0.98,0.47-2.09,0.53-3.16
		c0.09-1.51,0.18-3.08,1.23-4.26l0.31,0.27c-0.95,1.08-1.04,2.5-1.13,4.02c-0.07,1.11-0.13,2.25-0.56,3.29
		c-0.68,1.67-0.72,3.31-0.77,5.05c-0.03,1.22-0.06,2.48-0.33,3.78c-0.44,2.09-0.61,4.26-0.78,6.36l-1.27,15.79
		c-0.06,0.69-0.35,0.88-0.58,0.93C52.73,114.95,52.7,114.95,52.68,114.95z"/>
</g>
<g>
	<path d="M369.64,121.53c-5.07,0-9.68-0.82-13.79-2.46c-7.48-2.98-13.11-8.81-15.06-15.61c-0.72-2.51-0.95-5.13-1.12-7.6
		c-0.57-8.27-0.63-17.83,3.35-25.98l0,0c4.24-8.49,12.83-14.66,22.4-16.11c8.26-1.25,15.89,4.62,22.62,9.79
		c1.98,1.52,3.85,2.96,5.69,4.19c1.3,0.87,2.65,1.78,3.7,3c1.05,1.21,1.73,2.64,2.25,3.89c4.82,11.34,3.62,24.79-3.14,35.1
		c-1.87,2.85-3.85,5.02-6.06,6.61c-3.1,2.24-7.1,3.67-12.58,4.52C375.03,121.31,372.28,121.53,369.64,121.53z M343.39,70.06
		c-3.94,8.07-3.88,17.56-3.31,25.78c0.17,2.45,0.4,5.04,1.1,7.52c1.91,6.68,7.45,12.41,14.82,15.34c6.17,2.46,13.52,3.05,21.84,1.77
		c5.42-0.84,9.36-2.25,12.41-4.45c2.17-1.56,4.12-3.69,5.96-6.5c6.58-10.04,7.8-23.67,3.1-34.72c-0.52-1.21-1.18-2.61-2.19-3.78
		c-1.02-1.18-2.34-2.07-3.62-2.93c-1.85-1.24-3.72-2.68-5.71-4.21c-6.67-5.13-14.22-10.93-22.31-9.71
		C356.04,55.6,347.58,61.69,343.39,70.06L343.39,70.06z"/>
</g>
<g>
	<path d="M28.05,77.16c-0.15,0-0.27-0.1-0.34-0.16c-0.79-0.69-1.89-1.01-2.78-1.26c-3.97-1.14-8.03-2.19-12.06-3.11l0.09-0.4
		c4.04,0.92,8.11,1.97,12.09,3.11c0.93,0.27,2.08,0.6,2.94,1.35c0.01,0.01,0.06,0.05,0.08,0.06c-0.06,0.01-0.12,0.04-0.11,0.1
		c0.01,0.07,0.07,0.12,0.15,0.12v-0.41c0.14,0,0.25,0.1,0.26,0.24c0.01,0.14-0.07,0.31-0.23,0.34
		C28.09,77.16,28.07,77.16,28.05,77.16z"/>
</g>
<g>
	<path d="M80.84,80.42l-0.31-0.26c0.1-0.12,0.23-0.2,0.34-0.27c0.52-0.32,1.02-0.66,1.49-1.03l0.25,0.32
		c-0.48,0.38-0.99,0.73-1.52,1.05C80.99,80.29,80.9,80.35,80.84,80.42z"/>
</g>
<g>
	<path d="M21.69,164.04l-4.24-1.31c-2.38-0.73-4.79-1.63-5.82-3.78l0.37-0.18c0.95,2,3.27,2.86,5.57,3.57l4.24,1.31L21.69,164.04z"
		/>
</g>
<g>
	<path d="M161.85,172.36c-1.78,0-4.76-0.1-7.66-0.21c-3.43-0.12-6.68-0.23-7.52-0.16c-1.3,0.11-2.63,0-3.91-0.11
		c-1.35-0.12-2.75-0.24-4.1-0.08c-0.11,0.01-0.21,0.03-0.32,0.04c-0.39,0.05-0.79,0.1-1.2,0.07c-0.59-0.04-1.14-0.25-1.68-0.46
		c-0.12-0.05-0.24-0.09-0.36-0.14c-2.35-0.85-5.05-0.64-7.66-0.43c-1.14,0.09-2.32,0.19-3.45,0.19c-5.18,0-13.42,0.24-20.69,0.46
		c-3.88,0.12-7.54,0.22-10.2,0.28c-8.1,0.17-16.25-1.03-24.14-2.19c-6.92-1.02-14.07-2.07-21.16-2.19l0.01-0.41
		c7.11,0.13,14.28,1.18,21.21,2.2c7.87,1.16,16.01,2.35,24.07,2.18c2.66-0.05,6.32-0.16,10.2-0.28c7.27-0.22,15.52-0.46,20.71-0.46
		c1.11,0,2.28-0.09,3.42-0.18c2.65-0.21,5.4-0.43,7.83,0.45c0.12,0.04,0.25,0.09,0.37,0.14c0.53,0.2,1.03,0.39,1.56,0.43
		c0.37,0.03,0.73-0.02,1.12-0.07c0.11-0.01,0.22-0.03,0.32-0.04c1.39-0.16,2.81-0.04,4.18,0.08c1.26,0.11,2.57,0.22,3.84,0.11
		c0.87-0.08,4.12,0.04,7.57,0.16c3.73,0.13,7.6,0.26,8.83,0.18l0.03,0.41C162.78,172.35,162.37,172.36,161.85,172.36z"/>
</g>
<g>
	<path d="M354.24,117.99c-4.21-1.95-7.66-6.09-9.49-11.35c-1.69-4.88-1.91-10.05-1.89-14.91c0.01-2.47,0.08-5.73,0.53-8.96
		c1.16-8.26,4.84-16.25,10.37-22.5c2.28-2.58,5.61-5.69,8.46-5.83l0.02,0.41c-2.86,0.15-6.35,3.63-8.18,5.7
		c-5.48,6.19-9.13,14.1-10.27,22.29c-0.45,3.21-0.52,6.45-0.53,8.91c-0.02,4.82,0.2,9.95,1.87,14.78c1.79,5.16,5.17,9.21,9.27,11.11
		L354.24,117.99z"/>
</g>
<g>
	<path d="M415.28,93.82l-0.38-0.15c1.11-2.83,2.84-4.87,4.87-5.76c1.05-0.46,2.19-0.6,3.29-0.74c3.82-0.48,7.78-0.98,11.7-0.71
		l0.17,0.01c0.64,0.05,1.29,0.09,1.89-0.08c0.93-0.26,1.77-1.08,2.24-2.2c0.44-1.03,0.55-2.18,0.66-3.29l0.41,0.04
		c-0.11,1.14-0.23,2.32-0.69,3.41c-0.53,1.25-1.44,2.14-2.51,2.43c-0.67,0.19-1.36,0.14-2.03,0.09l-0.17-0.01
		c-3.89-0.27-7.82,0.23-11.63,0.71c-1.07,0.14-2.18,0.27-3.18,0.71C418,89.13,416.35,91.1,415.28,93.82z"/>
</g>
<g>
	<path d="M392.17,182.06c-0.04,0-0.08,0-0.13,0l0.01-0.41c2.44,0.08,3.75-2.37,4.92-4.52c0.44-0.82,0.86-1.59,1.31-2.15
		c1.19-1.49,3.05-2.05,4.85-2.59c1.03-0.31,2.1-0.63,3.04-1.12c0.44-0.23,0.87-0.51,1.29-0.79c0.9-0.59,1.84-1.2,2.94-1.37
		c1.67-0.26,3.22,0.55,4.71,1.33c0.4,0.21,0.81,0.42,1.21,0.61c4.19,1.96,8.82,1.65,12.39-0.82l0.23,0.34
		c-3.69,2.56-8.47,2.88-12.79,0.86c-0.41-0.19-0.82-0.41-1.22-0.62c-1.44-0.75-2.92-1.53-4.46-1.29c-1.01,0.16-1.87,0.72-2.77,1.31
		c-0.43,0.28-0.87,0.57-1.32,0.81c-0.97,0.51-2.06,0.84-3.11,1.15c-1.82,0.55-3.54,1.06-4.65,2.45c-0.42,0.52-0.83,1.28-1.27,2.09
		C396.19,179.43,394.77,182.06,392.17,182.06z"/>
</g>
<g>
	<path d="M163.23,25.15c-2.27,0-4.49-0.13-6.61-0.44l0.06-0.4c6.9,1.01,14.97,0.04,22.09-0.82c1.13-0.14,2.25-0.27,3.34-0.4
		c1.19-0.14,2.42-0.28,3.59-0.6c0.58-0.16,1.15-0.37,1.71-0.57c0.61-0.22,1.25-0.46,1.89-0.63c1.23-0.33,2.52-0.43,3.76-0.53
		l5.95-0.49l0.03,0.41l-5.95,0.49c-1.22,0.1-2.49,0.2-3.69,0.52c-0.63,0.17-1.25,0.39-1.86,0.61c-0.57,0.21-1.15,0.42-1.74,0.58
		c-1.2,0.33-2.45,0.48-3.65,0.61c-1.09,0.12-2.2,0.26-3.34,0.4C173.85,24.5,168.42,25.15,163.23,25.15z"/>
</g>
<g>
	<path d="M389.54,21.77l-1.22-0.01c-0.63-0.19-1.1-0.3-1.56-0.4c-0.47-0.1-0.95-0.21-1.59-0.41l-6.88-2.12
		c-0.6-0.18-1.22-0.37-1.84-0.43c-0.31-0.03-0.63-0.03-0.94-0.02c-0.14,0-0.28,0-0.42,0c-0.99-0.01-3.36-0.16-4.35-0.46l0.12-0.39
		c0.91,0.27,3.21,0.43,4.24,0.44c0.14,0,0.27,0,0.41,0c0.32,0,0.65,0,0.98,0.03c0.67,0.06,1.3,0.26,1.92,0.45l6.88,2.12
		c0.63,0.19,1.1,0.3,1.56,0.4c0.46,0.1,0.94,0.21,1.57,0.4h1.07c5.29-1.34,10.95-2.64,16.56-3.01l0.03,0.41
		c-5.58,0.37-11.23,1.66-16.51,3L389.54,21.77z"/>
</g>
<g>
	<path d="M72.04,125.25l-0.09-1.95c-0.02-0.36-0.04-0.77,0.16-1.16c0.03-0.06,0.07-0.13,0.11-0.2c0.13-0.21,0.2-0.34,0.14-0.44
		c-0.03-0.04-0.08-0.1-0.14-0.15c-0.06-0.06-0.13-0.12-0.19-0.2c-0.16-0.22-0.14-0.46-0.14-0.64l0.14-2.58
		c0.05-1.01,0.25-2.01,1.32-2.54l0.18,0.37c-0.93,0.46-1.05,1.38-1.09,2.2l-0.14,2.58c-0.01,0.17-0.01,0.28,0.06,0.38
		c0.03,0.04,0.08,0.09,0.13,0.13c0.08,0.07,0.16,0.15,0.22,0.25c0.18,0.32,0,0.62-0.14,0.86c-0.03,0.06-0.07,0.11-0.1,0.17
		c-0.15,0.29-0.13,0.63-0.12,0.96l0.09,1.95L72.04,125.25z"/>
</g>
</svg>
